<svg width="200" height="44" viewBox="0 0 200 44" fill="none" xmlns="http://www.w3.org/2000/svg">
<path d="M170.509 19.9697L171.028 38.1383C171.072 39.7043 173.105 40.3001 173.997 39.009L185.144 22.8926L170.509 19.9697Z" fill="#FF1970"/>
<path d="M158.527 7.48548L185.144 22.8926L199.805 1.6976C200.337 0.930527 199.709 -0.10153 198.779 0.00805155L159.109 4.69813C157.669 4.86749 157.274 6.76025 158.527 7.48548Z" fill="white"/>
<path d="M5.7932 16.8397C6.27831 16.7839 6.70328 17.1605 6.70328 17.6446V32.2588C6.70328 33.2052 6.9318 34.835 7.46501 35.7435C8.30292 37.447 10.6643 38.5846 14.5512 38.5846C18.4761 38.5846 20.7994 37.449 21.6754 35.7435C22.2086 34.835 22.4371 33.2072 22.4371 32.2588V18.2344C22.4371 17.824 22.7479 17.4773 23.1588 17.4295L28.1943 16.8417C28.6794 16.7859 29.1063 17.1625 29.1063 17.6466V33.6993C29.1063 35.9706 28.6493 38.4332 27.3163 39.9096C24.8787 42.6372 20.5729 44 14.5532 44C8.57154 44 4.22764 42.6372 1.82817 39.9096C0.495128 38.4332 0 35.9706 0 33.6993V18.2364C0 17.824 0.310706 17.4793 0.721643 17.4315L5.7932 16.8397Z" fill="white"/>
<path d="M71.4188 17.4295L76.4924 16.8397C76.9775 16.7839 77.4024 17.1605 77.4024 17.6446V42.43C77.4024 42.8783 77.0376 43.2409 76.5866 43.2409H71.513C71.062 43.2409 70.6971 42.8783 70.6971 42.43V18.2344C70.6971 17.824 71.0079 17.4773 71.4188 17.4295Z" fill="white"/>
<path d="M84.25 16.7341H106.575C107.232 16.7341 107.619 17.4653 107.248 18.0033L105.081 21.1413C104.777 21.5816 104.274 21.8446 103.736 21.8446H90.0673V27.5249H101.209C101.66 27.5249 102.025 27.8875 102.025 28.3358V31.5993C102.025 32.0476 101.66 32.4102 101.209 32.4102H90.0673V42.43C90.0673 42.8783 89.7025 43.2409 89.2514 43.2409H84.252C83.801 43.2409 83.4362 42.8783 83.4362 42.432V17.547C83.4322 17.0967 83.799 16.7341 84.25 16.7341Z" fill="white"/>
<path d="M111.56 16.7341H136.397C137.054 16.7341 137.441 17.4673 137.068 18.0053L134.893 21.1453C134.589 21.5856 134.086 21.8466 133.548 21.8466H126.927V42.43C126.927 42.8783 126.562 43.2409 126.111 43.2409H121.038C120.587 43.2409 120.222 42.8783 120.222 42.43V21.8466H111.558C111.107 21.8466 110.742 21.484 110.742 21.0357V17.545C110.744 17.0967 111.109 16.7341 111.56 16.7341Z" fill="white"/>
<path d="M161.039 21.5996C160.64 22.1754 159.919 22.4244 159.241 22.2351C157.547 21.761 155.41 21.3525 152.83 21.3525C149.936 21.3525 147.687 21.8446 146.125 22.791C144.106 24.0024 142.81 26.1621 142.81 29.9098C142.81 36.2715 146.582 38.5428 152.907 38.5428C156.737 38.5428 159.353 37.718 161.278 37.0286C161.691 36.8812 162.144 37.0844 162.308 37.4889L163.737 41.0014C163.904 41.4099 163.715 41.8741 163.308 42.0494C161.502 42.8285 158.185 43.998 152.83 43.998C142.657 43.998 136.295 39.7941 136.295 30.1011C136.295 23.7394 138.925 19.6869 142.962 17.7184C145.323 16.5449 148.448 15.9771 152.411 15.9771C156.461 15.9771 159.427 16.6525 162.482 17.7005C162.996 17.8758 163.2 18.4875 162.893 18.9318L161.039 21.5996Z" fill="white"/>
<path d="M60.2855 17.6048C58.1125 16.507 55.7892 15.9771 52.2471 15.9771C51.6678 15.9771 51.1045 16.0129 50.5573 16.0747L50.5132 16.0807C50.5032 16.0826 50.4911 16.0826 50.4791 16.0846L35.8538 17.812C35.4468 17.8599 35.1401 18.2025 35.1401 18.611V42.432C35.1401 42.8803 35.505 43.2429 35.956 43.2429H41.0296C41.4806 43.2429 41.8454 42.8803 41.8454 42.432L41.8414 21.8865C41.8414 21.8865 46.49 21.4402 49.541 21.3246C49.9018 21.3067 49.541 21.3326 49.541 21.3326C49.8998 21.3007 50.2566 21.2808 50.6074 21.2808C52.4757 21.2808 54.1896 21.5458 55.4845 22.1515C56.8176 22.8707 58.0002 24.4228 58.0002 26.5447V42.434C58.0002 42.8823 58.3651 43.2449 58.8161 43.2449H63.8516C64.3026 43.2449 64.6674 42.8823 64.6674 42.434V25.0683C64.6654 21.0875 62.5326 18.8162 60.2855 17.6048Z" fill="white"/>
</svg>
