
<svg width="108" height="32" viewBox="0 0 108 32" fill="none" xmlns="http://www.w3.org/2000/svg">
<rect x="0.5" y="0.5" width="107" height="31" rx="15.5" stroke="#666666"/>
<path d="M19.4355 16.4727C19.4355 17.6523 19.1914 18.5547 18.7031 19.1797C18.2148 19.8047 17.5 20.1172 16.5586 20.1172C15.6289 20.1172 14.918 19.8105 14.4258 19.1973C13.9336 18.584 13.6816 17.7051 13.6699 16.5605V14.9902C13.6699 13.7988 13.916 12.8945 14.4082 12.2773C14.9043 11.6602 15.6172 11.3516 16.5469 11.3516C17.4766 11.3516 18.1875 11.6582 18.6797 12.2715C19.1719 12.8809 19.4238 13.7578 19.4355 14.9023V16.4727ZM17.7422 14.75C17.7422 14.043 17.6445 13.5293 17.4492 13.209C17.2578 12.8848 16.957 12.7227 16.5469 12.7227C16.1484 12.7227 15.8535 12.877 15.6621 13.1855C15.4746 13.4902 15.375 13.9688 15.3633 14.6211V16.6953C15.3633 17.3906 15.457 17.9082 15.6445 18.248C15.8359 18.584 16.1406 18.752 16.5586 18.752C16.9727 18.752 17.2715 18.5898 17.4551 18.2656C17.6387 17.9414 17.7344 17.4453 17.7422 16.7773V14.75ZM26.1445 13.7363C26.1445 14.1504 26.041 14.5176 25.834 14.8379C25.627 15.1582 25.3418 15.4141 24.9785 15.6055C25.3926 15.8047 25.7207 16.0801 25.9629 16.4316C26.2051 16.7793 26.3262 17.1895 26.3262 17.6621C26.3262 18.4199 26.0684 19.0195 25.5527 19.4609C25.0371 19.8984 24.3359 20.1172 23.4492 20.1172C22.5625 20.1172 21.8594 19.8965 21.3398 19.4551C20.8203 19.0137 20.5605 18.416 20.5605 17.6621C20.5605 17.1895 20.6816 16.7773 20.9238 16.4258C21.166 16.0742 21.4922 15.8008 21.9023 15.6055C21.5391 15.4141 21.2539 15.1582 21.0469 14.8379C20.8438 14.5176 20.7422 14.1504 20.7422 13.7363C20.7422 13.0098 20.9844 12.4316 21.4688 12.002C21.9531 11.5684 22.6113 11.3516 23.4434 11.3516C24.2715 11.3516 24.9277 11.5664 25.4121 11.9961C25.9004 12.4219 26.1445 13.002 26.1445 13.7363ZM24.627 17.5391C24.627 17.168 24.5195 16.8711 24.3047 16.6484C24.0898 16.4258 23.8008 16.3145 23.4375 16.3145C23.0781 16.3145 22.791 16.4258 22.5762 16.6484C22.3613 16.8672 22.2539 17.1641 22.2539 17.5391C22.2539 17.9023 22.3594 18.1953 22.5703 18.418C22.7812 18.6406 23.0742 18.752 23.4492 18.752C23.8164 18.752 24.1035 18.6445 24.3105 18.4297C24.5215 18.2148 24.627 17.918 24.627 17.5391ZM24.4512 13.8184C24.4512 13.4863 24.3633 13.2207 24.1875 13.0215C24.0117 12.8184 23.7637 12.7168 23.4434 12.7168C23.127 12.7168 22.8809 12.8145 22.7051 13.0098C22.5293 13.2051 22.4414 13.4746 22.4414 13.8184C22.4414 14.1582 22.5293 14.4316 22.7051 14.6387C22.8809 14.8457 23.1289 14.9492 23.4492 14.9492C23.7695 14.9492 24.0156 14.8457 24.1875 14.6387C24.3633 14.4316 24.4512 14.1582 24.4512 13.8184ZM33.2168 16.4727C33.2168 17.6523 32.9727 18.5547 32.4844 19.1797C31.9961 19.8047 31.2812 20.1172 30.3398 20.1172C29.4102 20.1172 28.6992 19.8105 28.207 19.1973C27.7148 18.584 27.4629 17.7051 27.4512 16.5605V14.9902C27.4512 13.7988 27.6973 12.8945 28.1895 12.2773C28.6855 11.6602 29.3984 11.3516 30.3281 11.3516C31.2578 11.3516 31.9688 11.6582 32.4609 12.2715C32.9531 12.8809 33.2051 13.7578 33.2168 14.9023V16.4727ZM31.5234 14.75C31.5234 14.043 31.4258 13.5293 31.2305 13.209C31.0391 12.8848 30.7383 12.7227 30.3281 12.7227C29.9297 12.7227 29.6348 12.877 29.4434 13.1855C29.2559 13.4902 29.1562 13.9688 29.1445 14.6211V16.6953C29.1445 17.3906 29.2383 17.9082 29.4258 18.248C29.6172 18.584 29.9219 18.752 30.3398 18.752C30.7539 18.752 31.0527 18.5898 31.2363 18.2656C31.4199 17.9414 31.5156 17.4453 31.5234 16.7773V14.75ZM40.1074 16.4727C40.1074 17.6523 39.8633 18.5547 39.375 19.1797C38.8867 19.8047 38.1719 20.1172 37.2305 20.1172C36.3008 20.1172 35.5898 19.8105 35.0977 19.1973C34.6055 18.584 34.3535 17.7051 34.3418 16.5605V14.9902C34.3418 13.7988 34.5879 12.8945 35.0801 12.2773C35.5762 11.6602 36.2891 11.3516 37.2188 11.3516C38.1484 11.3516 38.8594 11.6582 39.3516 12.2715C39.8438 12.8809 40.0957 13.7578 40.1074 14.9023V16.4727ZM38.4141 14.75C38.4141 14.043 38.3164 13.5293 38.1211 13.209C37.9297 12.8848 37.6289 12.7227 37.2188 12.7227C36.8203 12.7227 36.5254 12.877 36.334 13.1855C36.1465 13.4902 36.0469 13.9688 36.0352 14.6211V16.6953C36.0352 17.3906 36.1289 17.9082 36.3164 18.248C36.5078 18.584 36.8125 18.752 37.2305 18.752C37.6445 18.752 37.9434 18.5898 38.127 18.2656C38.3105 17.9414 38.4062 17.4453 38.4141 16.7773V14.75ZM49.9863 16.4727C49.9863 17.6523 49.7422 18.5547 49.2539 19.1797C48.7656 19.8047 48.0508 20.1172 47.1094 20.1172C46.1797 20.1172 45.4688 19.8105 44.9766 19.1973C44.4844 18.584 44.2324 17.7051 44.2207 16.5605V14.9902C44.2207 13.7988 44.4668 12.8945 44.959 12.2773C45.4551 11.6602 46.168 11.3516 47.0977 11.3516C48.0273 11.3516 48.7383 11.6582 49.2305 12.2715C49.7227 12.8809 49.9746 13.7578 49.9863 14.9023V16.4727ZM48.293 14.75C48.293 14.043 48.1953 13.5293 48 13.209C47.8086 12.8848 47.5078 12.7227 47.0977 12.7227C46.6992 12.7227 46.4043 12.877 46.2129 13.1855C46.0254 13.4902 45.9258 13.9688 45.9141 14.6211V16.6953C45.9141 17.3906 46.0078 17.9082 46.1953 18.248C46.3867 18.584 46.6914 18.752 47.1094 18.752C47.5234 18.752 47.8223 18.5898 48.0059 18.2656C48.1895 17.9414 48.2852 17.4453 48.293 16.7773V14.75ZM51.3867 15.8047L51.8789 11.4688H56.6602V12.8809H53.2676L53.0566 14.7148C53.459 14.5 53.8867 14.3926 54.3398 14.3926C55.1523 14.3926 55.7891 14.6445 56.25 15.1484C56.7109 15.6523 56.9414 16.3574 56.9414 17.2637C56.9414 17.8145 56.8242 18.3086 56.5898 18.7461C56.3594 19.1797 56.0273 19.5176 55.5938 19.7598C55.1602 19.998 54.6484 20.1172 54.0586 20.1172C53.543 20.1172 53.0645 20.0137 52.623 19.8066C52.1816 19.5957 51.832 19.3008 51.5742 18.9219C51.3203 18.543 51.1855 18.1113 51.1699 17.627H52.8457C52.8809 17.9824 53.0039 18.2598 53.2148 18.459C53.4297 18.6543 53.709 18.752 54.0527 18.752C54.4355 18.752 54.7305 18.6152 54.9375 18.3418C55.1445 18.0645 55.248 17.6738 55.248 17.1699C55.248 16.6855 55.1289 16.3145 54.8906 16.0566C54.6523 15.7988 54.3145 15.6699 53.877 15.6699C53.4746 15.6699 53.1484 15.7754 52.8984 15.9863L52.7344 16.1387L51.3867 15.8047ZM62.6191 11.3809V12.7754H62.4551C61.6895 12.7871 61.0723 12.9863 60.6035 13.373C60.1387 13.7598 59.8594 14.2969 59.7656 14.9844C60.2188 14.5234 60.791 14.293 61.4824 14.293C62.2246 14.293 62.8145 14.5586 63.252 15.0898C63.6895 15.6211 63.9082 16.3203 63.9082 17.1875C63.9082 17.7422 63.7871 18.2441 63.5449 18.6934C63.3066 19.1426 62.9668 19.4922 62.5254 19.7422C62.0879 19.9922 61.5918 20.1172 61.0371 20.1172C60.1387 20.1172 59.4121 19.8047 58.8574 19.1797C58.3066 18.5547 58.0312 17.7207 58.0312 16.6777V16.0684C58.0312 15.1426 58.2051 14.3262 58.5527 13.6191C58.9043 12.9082 59.4062 12.3594 60.0586 11.9727C60.7148 11.582 61.4746 11.3848 62.3379 11.3809H62.6191ZM60.9668 15.6523C60.6934 15.6523 60.4453 15.7246 60.2227 15.8691C60 16.0098 59.8359 16.1973 59.7305 16.4316V16.9473C59.7305 17.5137 59.8418 17.957 60.0645 18.2773C60.2871 18.5938 60.5996 18.752 61.002 18.752C61.3652 18.752 61.6582 18.6094 61.8809 18.3242C62.1074 18.0352 62.2207 17.6621 62.2207 17.2051C62.2207 16.7402 62.1074 16.3652 61.8809 16.0801C61.6543 15.7949 61.3496 15.6523 60.9668 15.6523ZM72.498 11.3809V12.7754H72.334C71.5684 12.7871 70.9512 12.9863 70.4824 13.373C70.0176 13.7598 69.7383 14.2969 69.6445 14.9844C70.0977 14.5234 70.6699 14.293 71.3613 14.293C72.1035 14.293 72.6934 14.5586 73.1309 15.0898C73.5684 15.6211 73.7871 16.3203 73.7871 17.1875C73.7871 17.7422 73.666 18.2441 73.4238 18.6934C73.1855 19.1426 72.8457 19.4922 72.4043 19.7422C71.9668 19.9922 71.4707 20.1172 70.916 20.1172C70.0176 20.1172 69.291 19.8047 68.7363 19.1797C68.1855 18.5547 67.9102 17.7207 67.9102 16.6777V16.0684C67.9102 15.1426 68.084 14.3262 68.4316 13.6191C68.7832 12.9082 69.2852 12.3594 69.9375 11.9727C70.5938 11.582 71.3535 11.3848 72.2168 11.3809H72.498ZM70.8457 15.6523C70.5723 15.6523 70.3242 15.7246 70.1016 15.8691C69.8789 16.0098 69.7148 16.1973 69.6094 16.4316V16.9473C69.6094 17.5137 69.7207 17.957 69.9434 18.2773C70.166 18.5938 70.4785 18.752 70.8809 18.752C71.2441 18.752 71.5371 18.6094 71.7598 18.3242C71.9863 18.0352 72.0996 17.6621 72.0996 17.2051C72.0996 16.7402 71.9863 16.3652 71.7598 16.0801C71.5332 15.7949 71.2285 15.6523 70.8457 15.6523ZM79.3887 11.3809V12.7754H79.2246C78.459 12.7871 77.8418 12.9863 77.373 13.373C76.9082 13.7598 76.6289 14.2969 76.5352 14.9844C76.9883 14.5234 77.5605 14.293 78.252 14.293C78.9941 14.293 79.584 14.5586 80.0215 15.0898C80.459 15.6211 80.6777 16.3203 80.6777 17.1875C80.6777 17.7422 80.5566 18.2441 80.3145 18.6934C80.0762 19.1426 79.7363 19.4922 79.2949 19.7422C78.8574 19.9922 78.3613 20.1172 77.8066 20.1172C76.9082 20.1172 76.1816 19.8047 75.627 19.1797C75.0762 18.5547 74.8008 17.7207 74.8008 16.6777V16.0684C74.8008 15.1426 74.9746 14.3262 75.3223 13.6191C75.6738 12.9082 76.1758 12.3594 76.8281 11.9727C77.4844 11.582 78.2441 11.3848 79.1074 11.3809H79.3887ZM77.7363 15.6523C77.4629 15.6523 77.2148 15.7246 76.9922 15.8691C76.7695 16.0098 76.6055 16.1973 76.5 16.4316V16.9473C76.5 17.5137 76.6113 17.957 76.834 18.2773C77.0566 18.5938 77.3691 18.752 77.7715 18.752C78.1348 18.752 78.4277 18.6094 78.6504 18.3242C78.877 18.0352 78.9902 17.6621 78.9902 17.2051C78.9902 16.7402 78.877 16.3652 78.6504 16.0801C78.4238 15.7949 78.1191 15.6523 77.7363 15.6523ZM86.2793 11.3809V12.7754H86.1152C85.3496 12.7871 84.7324 12.9863 84.2637 13.373C83.7988 13.7598 83.5195 14.2969 83.4258 14.9844C83.8789 14.5234 84.4512 14.293 85.1426 14.293C85.8848 14.293 86.4746 14.5586 86.9121 15.0898C87.3496 15.6211 87.5684 16.3203 87.5684 17.1875C87.5684 17.7422 87.4473 18.2441 87.2051 18.6934C86.9668 19.1426 86.627 19.4922 86.1855 19.7422C85.748 19.9922 85.252 20.1172 84.6973 20.1172C83.7988 20.1172 83.0723 19.8047 82.5176 19.1797C81.9668 18.5547 81.6914 17.7207 81.6914 16.6777V16.0684C81.6914 15.1426 81.8652 14.3262 82.2129 13.6191C82.5645 12.9082 83.0664 12.3594 83.7188 11.9727C84.375 11.582 85.1348 11.3848 85.998 11.3809H86.2793ZM84.627 15.6523C84.3535 15.6523 84.1055 15.7246 83.8828 15.8691C83.6602 16.0098 83.4961 16.1973 83.3906 16.4316V16.9473C83.3906 17.5137 83.502 17.957 83.7246 18.2773C83.9473 18.5938 84.2598 18.752 84.6621 18.752C85.0254 18.752 85.3184 18.6094 85.541 18.3242C85.7676 18.0352 85.8809 17.6621 85.8809 17.2051C85.8809 16.7402 85.7676 16.3652 85.541 16.0801C85.3145 15.7949 85.0098 15.6523 84.627 15.6523ZM93.1699 11.3809V12.7754H93.0059C92.2402 12.7871 91.623 12.9863 91.1543 13.373C90.6895 13.7598 90.4102 14.2969 90.3164 14.9844C90.7695 14.5234 91.3418 14.293 92.0332 14.293C92.7754 14.293 93.3652 14.5586 93.8027 15.0898C94.2402 15.6211 94.459 16.3203 94.459 17.1875C94.459 17.7422 94.3379 18.2441 94.0957 18.6934C93.8574 19.1426 93.5176 19.4922 93.0762 19.7422C92.6387 19.9922 92.1426 20.1172 91.5879 20.1172C90.6895 20.1172 89.9629 19.8047 89.4082 19.1797C88.8574 18.5547 88.582 17.7207 88.582 16.6777V16.0684C88.582 15.1426 88.7559 14.3262 89.1035 13.6191C89.4551 12.9082 89.957 12.3594 90.6094 11.9727C91.2656 11.582 92.0254 11.3848 92.8887 11.3809H93.1699ZM91.5176 15.6523C91.2441 15.6523 90.9961 15.7246 90.7734 15.8691C90.5508 16.0098 90.3867 16.1973 90.2812 16.4316V16.9473C90.2812 17.5137 90.3926 17.957 90.6152 18.2773C90.8379 18.5938 91.1504 18.752 91.5527 18.752C91.916 18.752 92.209 18.6094 92.4316 18.3242C92.6582 18.0352 92.7715 17.6621 92.7715 17.2051C92.7715 16.7402 92.6582 16.3652 92.4316 16.0801C92.2051 15.7949 91.9004 15.6523 91.5176 15.6523Z" fill="#E5E5E5"/>
</svg>
