<svg width="140" height="40" viewBox="0 0 140 40" fill="none" xmlns="http://www.w3.org/2000/svg">
<rect x="0.5" y="0.5" width="139" height="39" rx="19.5" stroke="#CCCCCC"/>
<path d="M56.7021 21.6846C56.6247 22.7555 56.2282 23.5986 55.5127 24.2139C54.8018 24.8291 53.863 25.1367 52.6963 25.1367C51.4202 25.1367 50.4154 24.7083 49.6816 23.8516C48.9525 22.9902 48.5879 21.8099 48.5879 20.3105V19.7021C48.5879 18.7451 48.7565 17.902 49.0938 17.1729C49.431 16.4437 49.9118 15.8854 50.5361 15.498C51.165 15.1061 51.8942 14.9102 52.7236 14.9102C53.8721 14.9102 54.7972 15.2178 55.499 15.833C56.2008 16.4482 56.6064 17.3118 56.7158 18.4238H54.665C54.6149 17.7812 54.4349 17.3164 54.125 17.0293C53.8197 16.7376 53.3525 16.5918 52.7236 16.5918C52.04 16.5918 51.5273 16.8379 51.1855 17.3301C50.8483 17.8177 50.6751 18.5765 50.666 19.6064V20.3584C50.666 21.4339 50.8278 22.2201 51.1514 22.7168C51.4795 23.2135 51.9945 23.4619 52.6963 23.4619C53.3298 23.4619 53.8014 23.3184 54.1113 23.0312C54.4258 22.7396 54.6058 22.2907 54.6514 21.6846H56.7021ZM59.8467 18.4102C60.3708 17.7812 61.0293 17.4668 61.8223 17.4668C63.4264 17.4668 64.2399 18.3988 64.2627 20.2627V25H62.2871V20.3174C62.2871 19.8936 62.196 19.5814 62.0137 19.3809C61.8314 19.1758 61.5283 19.0732 61.1045 19.0732C60.5257 19.0732 60.1064 19.2965 59.8467 19.7432V25H57.8711V14.5H59.8467V18.4102ZM70.0391 25C69.9479 24.8223 69.8818 24.6012 69.8408 24.3369C69.3623 24.8701 68.7402 25.1367 67.9746 25.1367C67.25 25.1367 66.6484 24.9271 66.1699 24.5078C65.696 24.0885 65.459 23.5599 65.459 22.9219C65.459 22.138 65.7484 21.5365 66.3271 21.1172C66.9105 20.6979 67.7513 20.486 68.8496 20.4814H69.7588V20.0576C69.7588 19.7158 69.6699 19.4424 69.4922 19.2373C69.319 19.0322 69.0433 18.9297 68.665 18.9297C68.3324 18.9297 68.0703 19.0094 67.8789 19.1689C67.6921 19.3285 67.5986 19.5472 67.5986 19.8252H65.623C65.623 19.3968 65.7552 19.0003 66.0195 18.6357C66.2839 18.2712 66.6576 17.9863 67.1406 17.7812C67.6237 17.5716 68.166 17.4668 68.7676 17.4668C69.679 17.4668 70.4014 17.6969 70.9346 18.1572C71.4723 18.613 71.7412 19.2555 71.7412 20.085V23.291C71.7458 23.9928 71.8438 24.5238 72.0352 24.8838V25H70.0391ZM68.4053 23.626C68.6969 23.626 68.9658 23.5622 69.2119 23.4346C69.458 23.3024 69.6403 23.127 69.7588 22.9082V21.6367H69.0205C68.0316 21.6367 67.5052 21.9785 67.4414 22.6621L67.4346 22.7783C67.4346 23.0244 67.5212 23.2272 67.6943 23.3867C67.8675 23.5462 68.1045 23.626 68.4053 23.626ZM75.624 15.7852V17.6035H76.8887V19.0527H75.624V22.7441C75.624 23.0176 75.6764 23.2135 75.7812 23.332C75.8861 23.4505 76.0866 23.5098 76.3828 23.5098C76.6016 23.5098 76.7952 23.4938 76.9639 23.4619V24.959C76.5765 25.0775 76.1777 25.1367 75.7676 25.1367C74.3822 25.1367 73.6758 24.4372 73.6484 23.0381V19.0527H72.5684V17.6035H73.6484V15.7852H75.624Z" fill="#333333"/>
<path d="M22.4356 28.6534L22.4581 28.6489C24.5169 28.2405 25.7746 27.7016 26.3596 27.4058C27.2209 27.6355 28.1086 27.7512 29 27.75C33.9703 27.75 38 24.2242 38 19.875C38 15.5258 33.9703 12 29 12C24.0297 12 20 15.5258 20 19.875C20 21.855 20.8359 23.6663 22.2162 25.05C22.1197 25.9389 21.9219 26.8138 21.6267 27.6578L21.6234 27.6701C21.5395 27.9119 21.448 28.1508 21.3489 28.3867C21.26 28.596 21.4321 28.83 21.656 28.794C21.9166 28.7514 22.1765 28.7045 22.4356 28.6534ZM23.3356 25.1569C23.3514 24.9922 23.3306 24.826 23.2748 24.6703C23.219 24.5145 23.1295 24.373 23.0127 24.2557C21.8203 23.0588 21.125 21.5265 21.125 19.875C21.125 16.284 24.5045 13.125 29 13.125C33.4955 13.125 36.875 16.284 36.875 19.875C36.875 23.4671 33.4955 26.625 29 26.625C28.207 26.6262 27.4173 26.5233 26.651 26.319C26.3832 26.2472 26.0984 26.2769 25.8511 26.4023C25.4158 26.6228 24.4561 27.0435 22.8879 27.4069C23.1067 26.6724 23.2566 25.9192 23.3356 25.1569Z" fill="#333333"/>
</svg>
