<svg width="140" height="40" viewBox="0 0 140 40" fill="none" xmlns="http://www.w3.org/2000/svg">
<rect x="0.5" y="0.5" width="139" height="39" rx="19.5" stroke="#CCCCCC"/>
<path d="M56.6406 22.1289L57.9805 15.0469H60.0244L57.8164 25H55.752L54.1318 18.3418L52.5117 25H50.4473L48.2393 15.0469H50.2832L51.6299 22.1152L53.2705 15.0469H55.0068L56.6406 22.1289ZM62.9365 18.4102C63.4606 17.7812 64.1191 17.4668 64.9121 17.4668C66.5163 17.4668 67.3298 18.3988 67.3525 20.2627V25H65.377V20.3174C65.377 19.8936 65.2858 19.5814 65.1035 19.3809C64.9212 19.1758 64.6182 19.0732 64.1943 19.0732C63.6156 19.0732 63.1963 19.2965 62.9365 19.7432V25H60.9609V14.5H62.9365V18.4102ZM73.1289 25C73.0378 24.8223 72.9717 24.6012 72.9307 24.3369C72.4521 24.8701 71.8301 25.1367 71.0645 25.1367C70.3398 25.1367 69.7383 24.9271 69.2598 24.5078C68.7858 24.0885 68.5488 23.5599 68.5488 22.9219C68.5488 22.138 68.8382 21.5365 69.417 21.1172C70.0003 20.6979 70.8411 20.486 71.9395 20.4814H72.8486V20.0576C72.8486 19.7158 72.7598 19.4424 72.582 19.2373C72.4089 19.0322 72.1331 18.9297 71.7549 18.9297C71.4222 18.9297 71.1602 19.0094 70.9688 19.1689C70.7819 19.3285 70.6885 19.5472 70.6885 19.8252H68.7129C68.7129 19.3968 68.8451 19.0003 69.1094 18.6357C69.3737 18.2712 69.7474 17.9863 70.2305 17.7812C70.7135 17.5716 71.2559 17.4668 71.8574 17.4668C72.7689 17.4668 73.4912 17.6969 74.0244 18.1572C74.5622 18.613 74.8311 19.2555 74.8311 20.085V23.291C74.8356 23.9928 74.9336 24.5238 75.125 24.8838V25H73.1289ZM71.4951 23.626C71.7868 23.626 72.0557 23.5622 72.3018 23.4346C72.5479 23.3024 72.7301 23.127 72.8486 22.9082V21.6367H72.1104C71.1214 21.6367 70.5951 21.9785 70.5312 22.6621L70.5244 22.7783C70.5244 23.0244 70.611 23.2272 70.7842 23.3867C70.9574 23.5462 71.1943 23.626 71.4951 23.626ZM78.7139 15.7852V17.6035H79.9785V19.0527H78.7139V22.7441C78.7139 23.0176 78.7663 23.2135 78.8711 23.332C78.9759 23.4505 79.1764 23.5098 79.4727 23.5098C79.6914 23.5098 79.8851 23.4938 80.0537 23.4619V24.959C79.6663 25.0775 79.2676 25.1367 78.8574 25.1367C77.472 25.1367 76.7656 24.4372 76.7383 23.0381V19.0527H75.6582V17.6035H76.7383V15.7852H78.7139ZM85.085 22.9561C85.085 22.7145 84.9642 22.5254 84.7227 22.3887C84.4857 22.2474 84.1029 22.1221 83.5742 22.0127C81.8151 21.6436 80.9355 20.8962 80.9355 19.7705C80.9355 19.1143 81.2067 18.5674 81.749 18.1299C82.2959 17.6878 83.0091 17.4668 83.8887 17.4668C84.8275 17.4668 85.5771 17.6878 86.1377 18.1299C86.7028 18.5719 86.9854 19.1462 86.9854 19.8525H85.0098C85.0098 19.57 84.9186 19.3376 84.7363 19.1553C84.554 18.9684 84.2692 18.875 83.8818 18.875C83.5492 18.875 83.2917 18.9502 83.1094 19.1006C82.9271 19.251 82.8359 19.4424 82.8359 19.6748C82.8359 19.8936 82.9385 20.0713 83.1436 20.208C83.3532 20.3402 83.7041 20.4564 84.1963 20.5566C84.6885 20.6523 85.1032 20.7617 85.4404 20.8848C86.484 21.2676 87.0059 21.9307 87.0059 22.874C87.0059 23.5485 86.7165 24.0954 86.1377 24.5146C85.5589 24.9294 84.8115 25.1367 83.8955 25.1367C83.2757 25.1367 82.7243 25.0273 82.2412 24.8086C81.7627 24.5853 81.3867 24.2822 81.1133 23.8994C80.8398 23.512 80.7031 23.0951 80.7031 22.6484H82.5762C82.5944 22.9993 82.7243 23.2682 82.9658 23.4551C83.2074 23.6419 83.5309 23.7354 83.9365 23.7354C84.3148 23.7354 84.5996 23.6647 84.791 23.5234C84.987 23.3776 85.085 23.1885 85.085 22.9561ZM94.0332 22.9492H90.4375L89.7539 25H87.5732L91.2783 15.0469H93.1787L96.9043 25H94.7236L94.0332 22.9492ZM90.9912 21.2881H93.4795L92.2285 17.5625L90.9912 21.2881ZM104.034 21.3701C104.034 22.5094 103.774 23.4232 103.255 24.1113C102.74 24.7949 102.043 25.1367 101.163 25.1367C100.416 25.1367 99.8118 24.877 99.3516 24.3574V27.8438H97.376V17.6035H99.208L99.2764 18.3281C99.7549 17.7539 100.379 17.4668 101.149 17.4668C102.061 17.4668 102.77 17.804 103.275 18.4785C103.781 19.153 104.034 20.0827 104.034 21.2676V21.3701ZM102.059 21.2266C102.059 20.5384 101.936 20.0075 101.689 19.6338C101.448 19.2601 101.095 19.0732 100.63 19.0732C100.01 19.0732 99.584 19.3102 99.3516 19.7842V22.8125C99.5931 23.3001 100.024 23.5439 100.644 23.5439C101.587 23.5439 102.059 22.7715 102.059 21.2266ZM111.923 21.3701C111.923 22.5094 111.663 23.4232 111.144 24.1113C110.629 24.7949 109.931 25.1367 109.052 25.1367C108.304 25.1367 107.701 24.877 107.24 24.3574V27.8438H105.265V17.6035H107.097L107.165 18.3281C107.644 17.7539 108.268 17.4668 109.038 17.4668C109.95 17.4668 110.658 17.804 111.164 18.4785C111.67 19.153 111.923 20.0827 111.923 21.2676V21.3701ZM109.947 21.2266C109.947 20.5384 109.824 20.0075 109.578 19.6338C109.337 19.2601 108.983 19.0732 108.519 19.0732C107.899 19.0732 107.473 19.3102 107.24 19.7842V22.8125C107.482 23.3001 107.912 23.5439 108.532 23.5439C109.476 23.5439 109.947 22.7715 109.947 21.2266Z" fill="white"/>
<path fill-rule="evenodd" clip-rule="evenodd" d="M35.3774 13.4913C33.6853 11.8856 31.435 11.0009 29.0376 11C24.0976 11 20.0772 14.8106 20.0752 19.4941C20.0745 20.9913 20.4872 22.4528 21.2715 23.741L20 28.1429L24.7511 26.9616C26.0603 27.6384 27.5341 27.9951 29.034 27.9955H29.0378C33.9772 27.9955 37.9981 24.1846 38 19.5009C38.001 17.231 37.0696 15.0969 35.3774 13.4913ZM29.0376 26.5609H29.0346C27.6979 26.5604 26.387 26.2199 25.2432 25.5768L24.9713 25.4237L22.1519 26.1247L22.9044 23.5193L22.7272 23.2522C21.9815 22.128 21.5878 20.8287 21.5884 19.4946C21.59 15.6018 24.9317 12.4347 29.0406 12.4347C31.0303 12.4353 32.9007 13.1707 34.3071 14.5053C35.7135 15.8398 36.4875 17.6138 36.4869 19.5004C36.4851 23.3935 33.1435 26.5609 29.0376 26.5609ZM33.1237 21.2729C32.8998 21.1666 31.7988 20.6533 31.5934 20.5824C31.3883 20.5115 31.2389 20.4763 31.0897 20.6887C30.9404 20.9011 30.5113 21.3793 30.3806 21.5208C30.2499 21.6625 30.1194 21.6803 29.8954 21.574C29.6714 21.4678 28.9499 21.2435 28.0945 20.5204C27.4288 19.9576 26.9794 19.2626 26.8487 19.0502C26.7182 18.8375 26.8476 18.7337 26.9469 18.617C27.1894 18.3316 27.4321 18.0325 27.5067 17.8909C27.5815 17.7493 27.544 17.6253 27.488 17.5191C27.4321 17.4129 26.9843 16.3681 26.7977 15.943C26.6158 15.5293 26.4313 15.5852 26.2938 15.5787C26.1633 15.5725 26.0139 15.5713 25.8645 15.5713C25.7153 15.5713 25.4727 15.6243 25.2673 15.8369C25.0621 16.0494 24.4837 16.5628 24.4837 17.6076C24.4837 18.6523 25.2861 19.6616 25.398 19.8033C25.51 19.945 26.9772 22.0889 29.2235 23.0082C29.7578 23.227 30.1749 23.3575 30.5002 23.4554C31.0367 23.6169 31.5248 23.5941 31.9107 23.5395C32.341 23.4785 33.2355 23.0259 33.4223 22.5302C33.6088 22.0344 33.6088 21.6094 33.5528 21.5208C33.4969 21.4323 33.3475 21.3793 33.1237 21.2729Z" fill="white"/>
</svg>
