<svg width="170" height="40" viewBox="0 0 170 40" fill="none" xmlns="http://www.w3.org/2000/svg">
<path d="M37.6693 25.0998L33.562 21.3654C33.3679 21.1889 33.1127 21.0948 32.8505 21.1029C32.5882 21.111 32.3394 21.2207 32.1565 21.4089L29.7386 23.8954C29.1566 23.7843 27.9866 23.4195 26.7822 22.2182C25.5777 21.0128 25.213 19.8397 25.1049 19.2617L27.5895 16.8428C27.7778 16.6601 27.8877 16.4112 27.8958 16.1489C27.9039 15.8866 27.8096 15.6314 27.6329 15.4374L23.8995 11.3311C23.7227 11.1365 23.477 11.0184 23.2146 11.002C22.9521 10.9856 22.6936 11.0721 22.494 11.2432L20.3014 13.1236C20.1267 13.2989 20.0224 13.5322 20.0084 13.7793C19.9932 14.0319 19.7042 20.0155 24.344 24.6573C28.3917 28.704 33.462 29 34.8584 29C35.0625 29 35.1878 28.9939 35.2211 28.9919C35.4682 28.9781 35.7014 28.8734 35.8758 28.6979L37.7552 26.5043C37.927 26.3053 38.0142 26.047 37.9981 25.7846C37.9821 25.5222 37.8641 25.2765 37.6693 25.0998Z" fill="black"/>
<rect x="0.5" y="0.5" width="169" height="39" rx="19.5" stroke="#CCCCCC"/>
<path d="M55.376 20.8848C55.376 22.2611 55.0911 23.3138 54.5215 24.043C53.9518 24.7721 53.1178 25.1367 52.0195 25.1367C50.9349 25.1367 50.1055 24.779 49.5312 24.0635C48.957 23.348 48.6631 22.3226 48.6494 20.9873V19.1553C48.6494 17.7653 48.9365 16.7103 49.5107 15.9902C50.0895 15.2702 50.9212 14.9102 52.0059 14.9102C53.0905 14.9102 53.9199 15.2679 54.4941 15.9834C55.0684 16.6943 55.3623 17.7174 55.376 19.0527V20.8848ZM53.4004 18.875C53.4004 18.0501 53.2865 17.4508 53.0586 17.0771C52.8353 16.6989 52.4844 16.5098 52.0059 16.5098C51.541 16.5098 51.1969 16.6898 50.9736 17.0498C50.7549 17.4053 50.6387 17.9635 50.625 18.7246V21.1445C50.625 21.9557 50.7344 22.5596 50.9531 22.9561C51.1764 23.348 51.5319 23.5439 52.0195 23.5439C52.5026 23.5439 52.8512 23.3548 53.0654 22.9766C53.2796 22.5983 53.3913 22.0195 53.4004 21.2402V18.875ZM63.2031 17.6924C63.2031 18.1755 63.0824 18.6038 62.8408 18.9775C62.5993 19.3512 62.2666 19.6497 61.8428 19.873C62.3258 20.1055 62.7087 20.4268 62.9912 20.8369C63.2738 21.2425 63.415 21.721 63.415 22.2725C63.415 23.1566 63.1143 23.8561 62.5127 24.3711C61.9111 24.8815 61.0931 25.1367 60.0586 25.1367C59.0241 25.1367 58.2038 24.8792 57.5977 24.3643C56.9915 23.8493 56.6885 23.152 56.6885 22.2725C56.6885 21.721 56.8298 21.2402 57.1123 20.8301C57.3949 20.4199 57.7754 20.1009 58.2539 19.873C57.8301 19.6497 57.4974 19.3512 57.2559 18.9775C57.0189 18.6038 56.9004 18.1755 56.9004 17.6924C56.9004 16.8447 57.1829 16.1702 57.748 15.6689C58.3132 15.1631 59.0811 14.9102 60.0518 14.9102C61.0179 14.9102 61.7835 15.1608 62.3486 15.6621C62.9183 16.1589 63.2031 16.8356 63.2031 17.6924ZM61.4326 22.1289C61.4326 21.696 61.3073 21.3496 61.0566 21.0898C60.806 20.8301 60.4688 20.7002 60.0449 20.7002C59.6257 20.7002 59.2907 20.8301 59.04 21.0898C58.7894 21.3451 58.6641 21.6914 58.6641 22.1289C58.6641 22.5527 58.7871 22.8945 59.0332 23.1543C59.2793 23.4141 59.6211 23.5439 60.0586 23.5439C60.487 23.5439 60.8219 23.4186 61.0635 23.168C61.3096 22.9173 61.4326 22.571 61.4326 22.1289ZM61.2275 17.7881C61.2275 17.4007 61.125 17.0908 60.9199 16.8584C60.7148 16.6214 60.4255 16.5029 60.0518 16.5029C59.6826 16.5029 59.3955 16.6169 59.1904 16.8447C58.9854 17.0726 58.8828 17.387 58.8828 17.7881C58.8828 18.1846 58.9854 18.5036 59.1904 18.7451C59.3955 18.9867 59.6849 19.1074 60.0586 19.1074C60.4323 19.1074 60.7194 18.9867 60.9199 18.7451C61.125 18.5036 61.2275 18.1846 61.2275 17.7881ZM71.4541 20.8848C71.4541 22.2611 71.1693 23.3138 70.5996 24.043C70.0299 24.7721 69.196 25.1367 68.0977 25.1367C67.013 25.1367 66.1836 24.779 65.6094 24.0635C65.0352 23.348 64.7412 22.3226 64.7275 20.9873V19.1553C64.7275 17.7653 65.0146 16.7103 65.5889 15.9902C66.1676 15.2702 66.9993 14.9102 68.084 14.9102C69.1686 14.9102 69.998 15.2679 70.5723 15.9834C71.1465 16.6943 71.4404 17.7174 71.4541 19.0527V20.8848ZM69.4785 18.875C69.4785 18.0501 69.3646 17.4508 69.1367 17.0771C68.9134 16.6989 68.5625 16.5098 68.084 16.5098C67.6191 16.5098 67.2751 16.6898 67.0518 17.0498C66.833 17.4053 66.7168 17.9635 66.7031 18.7246V21.1445C66.7031 21.9557 66.8125 22.5596 67.0312 22.9561C67.2546 23.348 67.61 23.5439 68.0977 23.5439C68.5807 23.5439 68.9294 23.3548 69.1436 22.9766C69.3577 22.5983 69.4694 22.0195 69.4785 21.2402V18.875ZM79.4932 20.8848C79.4932 22.2611 79.2083 23.3138 78.6387 24.043C78.069 24.7721 77.235 25.1367 76.1367 25.1367C75.0521 25.1367 74.2227 24.779 73.6484 24.0635C73.0742 23.348 72.7803 22.3226 72.7666 20.9873V19.1553C72.7666 17.7653 73.0537 16.7103 73.6279 15.9902C74.2067 15.2702 75.0384 14.9102 76.123 14.9102C77.2077 14.9102 78.0371 15.2679 78.6113 15.9834C79.1855 16.6943 79.4795 17.7174 79.4932 19.0527V20.8848ZM77.5176 18.875C77.5176 18.0501 77.4036 17.4508 77.1758 17.0771C76.9525 16.6989 76.6016 16.5098 76.123 16.5098C75.6582 16.5098 75.3141 16.6898 75.0908 17.0498C74.8721 17.4053 74.7559 17.9635 74.7422 18.7246V21.1445C74.7422 21.9557 74.8516 22.5596 75.0703 22.9561C75.2936 23.348 75.6491 23.5439 76.1367 23.5439C76.6198 23.5439 76.9684 23.3548 77.1826 22.9766C77.3968 22.5983 77.5085 22.0195 77.5176 21.2402V18.875ZM91.0186 20.8848C91.0186 22.2611 90.7337 23.3138 90.1641 24.043C89.5944 24.7721 88.7604 25.1367 87.6621 25.1367C86.5775 25.1367 85.748 24.779 85.1738 24.0635C84.5996 23.348 84.3057 22.3226 84.292 20.9873V19.1553C84.292 17.7653 84.5791 16.7103 85.1533 15.9902C85.7321 15.2702 86.5638 14.9102 87.6484 14.9102C88.7331 14.9102 89.5625 15.2679 90.1367 15.9834C90.7109 16.6943 91.0049 17.7174 91.0186 19.0527V20.8848ZM89.043 18.875C89.043 18.0501 88.929 17.4508 88.7012 17.0771C88.4779 16.6989 88.127 16.5098 87.6484 16.5098C87.1836 16.5098 86.8395 16.6898 86.6162 17.0498C86.3975 17.4053 86.2812 17.9635 86.2676 18.7246V21.1445C86.2676 21.9557 86.377 22.5596 86.5957 22.9561C86.819 23.348 87.1745 23.5439 87.6621 23.5439C88.1452 23.5439 88.4938 23.3548 88.708 22.9766C88.9222 22.5983 89.0339 22.0195 89.043 21.2402V18.875ZM92.6523 20.1055L93.2266 15.0469H98.8047V16.6943H94.8467L94.6006 18.834C95.07 18.5833 95.569 18.458 96.0977 18.458C97.0456 18.458 97.7884 18.752 98.3262 19.3398C98.8639 19.9277 99.1328 20.7503 99.1328 21.8076C99.1328 22.4502 98.9961 23.0267 98.7227 23.5371C98.4538 24.043 98.0664 24.4372 97.5605 24.7197C97.0547 24.9977 96.4577 25.1367 95.7695 25.1367C95.168 25.1367 94.6097 25.016 94.0947 24.7744C93.5798 24.5283 93.1719 24.1842 92.8711 23.7422C92.5749 23.3001 92.4176 22.7965 92.3994 22.2314H94.3545C94.3955 22.6462 94.5391 22.9697 94.7852 23.2021C95.0358 23.43 95.3617 23.5439 95.7627 23.5439C96.2093 23.5439 96.5534 23.3844 96.7949 23.0654C97.0365 22.7419 97.1572 22.2861 97.1572 21.6982C97.1572 21.1331 97.0182 20.7002 96.7402 20.3994C96.4622 20.0986 96.068 19.9482 95.5576 19.9482C95.0882 19.9482 94.7077 20.0713 94.416 20.3174L94.2246 20.4951L92.6523 20.1055ZM105.757 14.9443V16.5713H105.565C104.672 16.585 103.952 16.8174 103.405 17.2686C102.863 17.7197 102.537 18.3464 102.428 19.1484C102.956 18.6107 103.624 18.3418 104.431 18.3418C105.297 18.3418 105.985 18.6517 106.495 19.2715C107.006 19.8913 107.261 20.707 107.261 21.7188C107.261 22.3659 107.119 22.9515 106.837 23.4756C106.559 23.9997 106.162 24.4076 105.647 24.6992C105.137 24.9909 104.558 25.1367 103.911 25.1367C102.863 25.1367 102.015 24.7721 101.368 24.043C100.726 23.3138 100.404 22.3408 100.404 21.124V20.4131C100.404 19.333 100.607 18.3805 101.013 17.5557C101.423 16.7262 102.008 16.0859 102.77 15.6348C103.535 15.179 104.422 14.9489 105.429 14.9443H105.757ZM103.829 19.9277C103.51 19.9277 103.221 20.012 102.961 20.1807C102.701 20.3447 102.51 20.5635 102.387 20.8369V21.4385C102.387 22.0993 102.517 22.6165 102.776 22.9902C103.036 23.3594 103.401 23.5439 103.87 23.5439C104.294 23.5439 104.636 23.3776 104.896 23.0449C105.16 22.7077 105.292 22.2725 105.292 21.7393C105.292 21.1969 105.16 20.7594 104.896 20.4268C104.631 20.0941 104.276 19.9277 103.829 19.9277ZM117.282 14.9443V16.5713H117.091C116.198 16.585 115.478 16.8174 114.931 17.2686C114.388 17.7197 114.062 18.3464 113.953 19.1484C114.482 18.6107 115.149 18.3418 115.956 18.3418C116.822 18.3418 117.51 18.6517 118.021 19.2715C118.531 19.8913 118.786 20.707 118.786 21.7188C118.786 22.3659 118.645 22.9515 118.362 23.4756C118.084 23.9997 117.688 24.4076 117.173 24.6992C116.662 24.9909 116.084 25.1367 115.437 25.1367C114.388 25.1367 113.541 24.7721 112.894 24.043C112.251 23.3138 111.93 22.3408 111.93 21.124V20.4131C111.93 19.333 112.132 18.3805 112.538 17.5557C112.948 16.7262 113.534 16.0859 114.295 15.6348C115.061 15.179 115.947 14.9489 116.954 14.9443H117.282ZM115.354 19.9277C115.035 19.9277 114.746 20.012 114.486 20.1807C114.227 20.3447 114.035 20.5635 113.912 20.8369V21.4385C113.912 22.0993 114.042 22.6165 114.302 22.9902C114.562 23.3594 114.926 23.5439 115.396 23.5439C115.819 23.5439 116.161 23.3776 116.421 23.0449C116.685 22.7077 116.817 22.2725 116.817 21.7393C116.817 21.1969 116.685 20.7594 116.421 20.4268C116.157 20.0941 115.801 19.9277 115.354 19.9277ZM125.321 14.9443V16.5713H125.13C124.237 16.585 123.517 16.8174 122.97 17.2686C122.427 17.7197 122.102 18.3464 121.992 19.1484C122.521 18.6107 123.188 18.3418 123.995 18.3418C124.861 18.3418 125.549 18.6517 126.06 19.2715C126.57 19.8913 126.825 20.707 126.825 21.7188C126.825 22.3659 126.684 22.9515 126.401 23.4756C126.123 23.9997 125.727 24.4076 125.212 24.6992C124.701 24.9909 124.123 25.1367 123.476 25.1367C122.427 25.1367 121.58 24.7721 120.933 24.043C120.29 23.3138 119.969 22.3408 119.969 21.124V20.4131C119.969 19.333 120.172 18.3805 120.577 17.5557C120.987 16.7262 121.573 16.0859 122.334 15.6348C123.1 15.179 123.986 14.9489 124.993 14.9443H125.321ZM123.394 19.9277C123.075 19.9277 122.785 20.012 122.525 20.1807C122.266 20.3447 122.074 20.5635 121.951 20.8369V21.4385C121.951 22.0993 122.081 22.6165 122.341 22.9902C122.601 23.3594 122.965 23.5439 123.435 23.5439C123.858 23.5439 124.2 23.3776 124.46 23.0449C124.724 22.7077 124.856 22.2725 124.856 21.7393C124.856 21.1969 124.724 20.7594 124.46 20.4268C124.196 20.0941 123.84 19.9277 123.394 19.9277ZM133.36 14.9443V16.5713H133.169C132.276 16.585 131.556 16.8174 131.009 17.2686C130.466 17.7197 130.141 18.3464 130.031 19.1484C130.56 18.6107 131.228 18.3418 132.034 18.3418C132.9 18.3418 133.588 18.6517 134.099 19.2715C134.609 19.8913 134.864 20.707 134.864 21.7188C134.864 22.3659 134.723 22.9515 134.44 23.4756C134.162 23.9997 133.766 24.4076 133.251 24.6992C132.741 24.9909 132.162 25.1367 131.515 25.1367C130.466 25.1367 129.619 24.7721 128.972 24.043C128.329 23.3138 128.008 22.3408 128.008 21.124V20.4131C128.008 19.333 128.211 18.3805 128.616 17.5557C129.026 16.7262 129.612 16.0859 130.373 15.6348C131.139 15.179 132.025 14.9489 133.032 14.9443H133.36ZM131.433 19.9277C131.114 19.9277 130.824 20.012 130.564 20.1807C130.305 20.3447 130.113 20.5635 129.99 20.8369V21.4385C129.99 22.0993 130.12 22.6165 130.38 22.9902C130.64 23.3594 131.004 23.5439 131.474 23.5439C131.897 23.5439 132.239 23.3776 132.499 23.0449C132.763 22.7077 132.896 22.2725 132.896 21.7393C132.896 21.1969 132.763 20.7594 132.499 20.4268C132.235 20.0941 131.879 19.9277 131.433 19.9277ZM141.399 14.9443V16.5713H141.208C140.315 16.585 139.595 16.8174 139.048 17.2686C138.506 17.7197 138.18 18.3464 138.07 19.1484C138.599 18.6107 139.267 18.3418 140.073 18.3418C140.939 18.3418 141.627 18.6517 142.138 19.2715C142.648 19.8913 142.903 20.707 142.903 21.7188C142.903 22.3659 142.762 22.9515 142.479 23.4756C142.201 23.9997 141.805 24.4076 141.29 24.6992C140.78 24.9909 140.201 25.1367 139.554 25.1367C138.506 25.1367 137.658 24.7721 137.011 24.043C136.368 23.3138 136.047 22.3408 136.047 21.124V20.4131C136.047 19.333 136.25 18.3805 136.655 17.5557C137.065 16.7262 137.651 16.0859 138.412 15.6348C139.178 15.179 140.064 14.9489 141.071 14.9443H141.399ZM139.472 19.9277C139.153 19.9277 138.863 20.012 138.604 20.1807C138.344 20.3447 138.152 20.5635 138.029 20.8369V21.4385C138.029 22.0993 138.159 22.6165 138.419 22.9902C138.679 23.3594 139.043 23.5439 139.513 23.5439C139.937 23.5439 140.278 23.3776 140.538 23.0449C140.802 22.7077 140.935 22.2725 140.935 21.7393C140.935 21.1969 140.802 20.7594 140.538 20.4268C140.274 20.0941 139.918 19.9277 139.472 19.9277Z" fill="#333333"/>
</svg>
