<svg width="140" height="40" viewBox="0 0 140 40" fill="none" xmlns="http://www.w3.org/2000/svg">
<rect x="0.5" y="0.5" width="139" height="39" rx="19.5" stroke="#CCCCCC"/>
<path d="M51.5684 15.0469L54.125 22.2656L56.668 15.0469H59.3613V25H57.3037V22.2793L57.5088 17.583L54.8223 25H53.4141L50.7344 17.5898L50.9395 22.2793V25H48.8887V15.0469H51.5684ZM64.4268 25.1367C63.3421 25.1367 62.458 24.804 61.7744 24.1387C61.0954 23.4733 60.7559 22.5869 60.7559 21.4795V21.2881C60.7559 20.5452 60.8994 19.8822 61.1865 19.2988C61.4736 18.7109 61.8792 18.2598 62.4033 17.9453C62.932 17.6263 63.5335 17.4668 64.208 17.4668C65.2197 17.4668 66.015 17.7858 66.5938 18.4238C67.1771 19.0618 67.4688 19.9665 67.4688 21.1377V21.9443H62.7588C62.8226 22.4274 63.014 22.8148 63.333 23.1064C63.6566 23.3981 64.0645 23.5439 64.5566 23.5439C65.3177 23.5439 65.9124 23.2682 66.3408 22.7168L67.3115 23.8037C67.0153 24.223 66.6143 24.5511 66.1084 24.7881C65.6025 25.0205 65.042 25.1367 64.4268 25.1367ZM64.2012 19.0664C63.8092 19.0664 63.4902 19.1986 63.2441 19.4629C63.0026 19.7272 62.8477 20.1055 62.7793 20.5977H65.5273V20.4404C65.5182 20.0029 65.3997 19.6657 65.1719 19.4287C64.944 19.1872 64.6204 19.0664 64.2012 19.0664ZM72.6025 22.9561C72.6025 22.7145 72.4818 22.5254 72.2402 22.3887C72.0033 22.2474 71.6204 22.1221 71.0918 22.0127C69.3327 21.6436 68.4531 20.8962 68.4531 19.7705C68.4531 19.1143 68.7243 18.5674 69.2666 18.1299C69.8135 17.6878 70.5267 17.4668 71.4062 17.4668C72.3451 17.4668 73.0947 17.6878 73.6553 18.1299C74.2204 18.5719 74.5029 19.1462 74.5029 19.8525H72.5273C72.5273 19.57 72.4362 19.3376 72.2539 19.1553C72.0716 18.9684 71.7868 18.875 71.3994 18.875C71.0667 18.875 70.8092 18.9502 70.627 19.1006C70.4447 19.251 70.3535 19.4424 70.3535 19.6748C70.3535 19.8936 70.4561 20.0713 70.6611 20.208C70.8708 20.3402 71.2217 20.4564 71.7139 20.5566C72.2061 20.6523 72.6208 20.7617 72.958 20.8848C74.0016 21.2676 74.5234 21.9307 74.5234 22.874C74.5234 23.5485 74.234 24.0954 73.6553 24.5146C73.0765 24.9294 72.3291 25.1367 71.4131 25.1367C70.7933 25.1367 70.2419 25.0273 69.7588 24.8086C69.2803 24.5853 68.9043 24.2822 68.6309 23.8994C68.3574 23.512 68.2207 23.0951 68.2207 22.6484H70.0938C70.112 22.9993 70.2419 23.2682 70.4834 23.4551C70.7249 23.6419 71.0485 23.7354 71.4541 23.7354C71.8324 23.7354 72.1172 23.6647 72.3086 23.5234C72.5046 23.3776 72.6025 23.1885 72.6025 22.9561ZM79.8076 22.9561C79.8076 22.7145 79.6868 22.5254 79.4453 22.3887C79.2083 22.2474 78.8255 22.1221 78.2969 22.0127C76.5378 21.6436 75.6582 20.8962 75.6582 19.7705C75.6582 19.1143 75.9294 18.5674 76.4717 18.1299C77.0186 17.6878 77.7318 17.4668 78.6113 17.4668C79.5501 17.4668 80.2998 17.6878 80.8604 18.1299C81.4255 18.5719 81.708 19.1462 81.708 19.8525H79.7324C79.7324 19.57 79.6413 19.3376 79.459 19.1553C79.2767 18.9684 78.9919 18.875 78.6045 18.875C78.2718 18.875 78.0143 18.9502 77.832 19.1006C77.6497 19.251 77.5586 19.4424 77.5586 19.6748C77.5586 19.8936 77.6611 20.0713 77.8662 20.208C78.0758 20.3402 78.4268 20.4564 78.9189 20.5566C79.4111 20.6523 79.8258 20.7617 80.1631 20.8848C81.2067 21.2676 81.7285 21.9307 81.7285 22.874C81.7285 23.5485 81.4391 24.0954 80.8604 24.5146C80.2816 24.9294 79.5342 25.1367 78.6182 25.1367C77.9984 25.1367 77.4469 25.0273 76.9639 24.8086C76.4854 24.5853 76.1094 24.2822 75.8359 23.8994C75.5625 23.512 75.4258 23.0951 75.4258 22.6484H77.2988C77.3171 22.9993 77.4469 23.2682 77.6885 23.4551C77.93 23.6419 78.2536 23.7354 78.6592 23.7354C79.0374 23.7354 79.3223 23.6647 79.5137 23.5234C79.7096 23.3776 79.8076 23.1885 79.8076 22.9561ZM86.4111 25.1367C85.3265 25.1367 84.4424 24.804 83.7588 24.1387C83.0798 23.4733 82.7402 22.5869 82.7402 21.4795V21.2881C82.7402 20.5452 82.8838 19.8822 83.1709 19.2988C83.458 18.7109 83.8636 18.2598 84.3877 17.9453C84.9163 17.6263 85.5179 17.4668 86.1924 17.4668C87.2041 17.4668 87.9993 17.7858 88.5781 18.4238C89.1615 19.0618 89.4531 19.9665 89.4531 21.1377V21.9443H84.7432C84.807 22.4274 84.9984 22.8148 85.3174 23.1064C85.641 23.3981 86.0488 23.5439 86.541 23.5439C87.3021 23.5439 87.8968 23.2682 88.3252 22.7168L89.2959 23.8037C88.9997 24.223 88.5986 24.5511 88.0928 24.7881C87.5869 25.0205 87.0264 25.1367 86.4111 25.1367ZM86.1855 19.0664C85.7936 19.0664 85.4746 19.1986 85.2285 19.4629C84.987 19.7272 84.832 20.1055 84.7637 20.5977H87.5117V20.4404C87.5026 20.0029 87.3841 19.6657 87.1562 19.4287C86.9284 19.1872 86.6048 19.0664 86.1855 19.0664ZM92.3994 17.6035L92.4609 18.458C92.9896 17.7972 93.6982 17.4668 94.5869 17.4668C95.3708 17.4668 95.9541 17.6969 96.3369 18.1572C96.7197 18.6175 96.9157 19.3057 96.9248 20.2217V25H94.9492V20.2695C94.9492 19.8503 94.8581 19.5472 94.6758 19.3604C94.4935 19.1689 94.1904 19.0732 93.7666 19.0732C93.2106 19.0732 92.7936 19.3102 92.5156 19.7842V25H90.54V17.6035H92.3994ZM98.1416 21.2471C98.1416 20.1123 98.4105 19.1986 98.9482 18.5059C99.4906 17.8132 100.22 17.4668 101.136 17.4668C101.947 17.4668 102.578 17.7448 103.029 18.3008L103.111 17.6035H104.902V24.7539C104.902 25.401 104.754 25.9639 104.458 26.4424C104.166 26.9209 103.754 27.2855 103.221 27.5361C102.688 27.7868 102.063 27.9121 101.348 27.9121C100.805 27.9121 100.277 27.8027 99.7617 27.584C99.2467 27.3698 98.8571 27.0918 98.5928 26.75L99.4678 25.5469C99.96 26.0983 100.557 26.374 101.259 26.374C101.783 26.374 102.191 26.2327 102.482 25.9502C102.774 25.6722 102.92 25.2757 102.92 24.7607V24.3643C102.464 24.8792 101.865 25.1367 101.122 25.1367C100.233 25.1367 99.5133 24.7904 98.9619 24.0977C98.415 23.4004 98.1416 22.4775 98.1416 21.3291V21.2471ZM100.117 21.3906C100.117 22.0605 100.252 22.5869 100.521 22.9697C100.789 23.348 101.159 23.5371 101.628 23.5371C102.229 23.5371 102.66 23.3115 102.92 22.8604V19.75C102.656 19.2988 102.229 19.0732 101.642 19.0732C101.168 19.0732 100.794 19.2669 100.521 19.6543C100.252 20.0417 100.117 20.6204 100.117 21.3906ZM109.831 25.1367C108.746 25.1367 107.862 24.804 107.179 24.1387C106.5 23.4733 106.16 22.5869 106.16 21.4795V21.2881C106.16 20.5452 106.304 19.8822 106.591 19.2988C106.878 18.7109 107.284 18.2598 107.808 17.9453C108.336 17.6263 108.938 17.4668 109.612 17.4668C110.624 17.4668 111.419 17.7858 111.998 18.4238C112.581 19.0618 112.873 19.9665 112.873 21.1377V21.9443H108.163C108.227 22.4274 108.418 22.8148 108.737 23.1064C109.061 23.3981 109.469 23.5439 109.961 23.5439C110.722 23.5439 111.317 23.2682 111.745 22.7168L112.716 23.8037C112.42 24.223 112.019 24.5511 111.513 24.7881C111.007 25.0205 110.446 25.1367 109.831 25.1367ZM109.605 19.0664C109.214 19.0664 108.895 19.1986 108.648 19.4629C108.407 19.7272 108.252 20.1055 108.184 20.5977H110.932V20.4404C110.923 20.0029 110.804 19.6657 110.576 19.4287C110.348 19.1872 110.025 19.0664 109.605 19.0664ZM118.157 19.4561C117.888 19.4196 117.651 19.4014 117.446 19.4014C116.699 19.4014 116.209 19.6543 115.977 20.1602V25H114.001V17.6035H115.867L115.922 18.4854C116.318 17.8063 116.868 17.4668 117.569 17.4668C117.788 17.4668 117.993 17.4964 118.185 17.5557L118.157 19.4561Z" fill="#333333"/>
<path d="M22.7151 30V26.4567C21.5717 25.6266 20.6402 24.5434 19.9952 23.2934C19.3501 22.0434 19.0093 20.6614 19 19.2578C18.9989 14.1533 23.4885 10 28.9994 10C34.5104 10 39 14.1533 39 19.2578C39.0011 24.3622 34.5104 28.5133 28.9994 28.5133C28.0286 28.5146 27.0622 28.3842 26.1272 28.1256L22.7174 30H22.7151ZM27.9455 16.7433L22.4839 22.48L27.4651 19.7533L30.0466 22.4133L35.5093 16.6778L30.5326 19.4044L27.9455 16.7433Z" fill="#333333"/>
</svg>
