<svg width="140" height="40" viewBox="0 0 140 40" fill="none" xmlns="http://www.w3.org/2000/svg">
<path d="M25.1878 26.5031C25.7188 26.2691 26.3128 26.225 26.869 26.378C27.5621 26.567 28.2776 26.6624 29.0003 26.6606C33.127 26.6606 36.2006 23.7022 36.2006 19.7303C36.2006 15.7585 33.127 12.8001 29.0003 12.8001C24.8737 12.8001 21.8001 15.7585 21.8001 19.7303C21.8001 21.7734 22.6065 23.5753 24.0195 24.8389C24.2763 25.0663 24.4839 25.3437 24.6297 25.6542C24.7755 25.9646 24.8564 26.3016 24.8674 26.6444L25.1878 26.5031ZM29.0003 11C34.0711 11 38.0007 14.7144 38.0007 19.7303C38.0007 24.7462 34.0711 28.4606 29.0003 28.4606C28.1202 28.4629 27.2438 28.3466 26.3947 28.115C26.2352 28.0712 26.0655 28.0836 25.9141 28.1501L24.1284 28.9386C24.0206 28.9862 23.9026 29.0067 23.785 28.9981C23.6673 28.9895 23.5536 28.9521 23.4538 28.8893C23.354 28.8265 23.2711 28.7401 23.2125 28.6377C23.1539 28.5353 23.1214 28.4201 23.1177 28.3022L23.0682 26.7002C23.065 26.6028 23.0419 26.507 23.0004 26.4188C22.959 26.3306 22.9 26.2518 22.827 26.1872C21.0755 24.622 20 22.3557 20 19.7303C20 14.7144 23.9304 11 29.0003 11ZM23.5956 22.2837L26.239 18.0896C26.3385 17.9317 26.4696 17.7961 26.6241 17.6914C26.7786 17.5867 26.9531 17.5152 27.1366 17.4814C27.3202 17.4475 27.5087 17.4521 27.6904 17.4948C27.872 17.5376 28.0429 17.6175 28.1921 17.7295L30.2946 19.3046C30.3883 19.3753 30.5025 19.4136 30.6199 19.4136C30.7374 19.4136 30.8516 19.3753 30.9453 19.3046L33.7849 17.1481C34.1638 16.861 34.6588 17.3146 34.405 17.7178L31.7616 21.912C31.6622 22.0699 31.5311 22.2055 31.3766 22.3102C31.2221 22.4148 31.0475 22.4863 30.864 22.5202C30.6805 22.554 30.4919 22.5494 30.3103 22.5067C30.1286 22.464 29.9578 22.3841 29.8086 22.272L27.7061 20.697C27.6124 20.6262 27.4981 20.5879 27.3807 20.5879C27.2633 20.5879 27.1491 20.6262 27.0554 20.697L24.2158 22.8525C23.8368 23.1396 23.3418 22.686 23.5956 22.2828V22.2837Z" fill="white"/>
<rect x="0.5" y="0.5" width="139" height="39" rx="19.5" stroke="#CCCCCC"/>
<path d="M51.0693 25H49.0186V15.0469H51.0693V25ZM60.8516 23.7422C60.4824 24.1842 59.9606 24.5283 59.2861 24.7744C58.6117 25.016 57.8643 25.1367 57.0439 25.1367C56.1826 25.1367 55.4261 24.9499 54.7744 24.5762C54.1273 24.1979 53.626 23.651 53.2705 22.9355C52.9196 22.2201 52.7396 21.3792 52.7305 20.4131V19.7363C52.7305 18.7428 52.8968 17.8838 53.2295 17.1592C53.5667 16.43 54.0498 15.874 54.6787 15.4912C55.3122 15.1038 56.0527 14.9102 56.9004 14.9102C58.0807 14.9102 59.0036 15.1927 59.6689 15.7578C60.3343 16.3184 60.7285 17.1364 60.8516 18.2119H58.8555C58.7643 17.6423 58.5615 17.2253 58.2471 16.9609C57.9372 16.6966 57.5088 16.5645 56.9619 16.5645C56.2646 16.5645 55.7337 16.8265 55.3691 17.3506C55.0046 17.8747 54.82 18.654 54.8154 19.6885V20.3242C54.8154 21.3678 55.0137 22.1562 55.4102 22.6895C55.8066 23.2227 56.3877 23.4893 57.1533 23.4893C57.9235 23.4893 58.4727 23.3252 58.8008 22.9971V21.2812H56.9346V19.7705H60.8516V23.7422ZM66.0059 25V15.0469H69.0684C69.9434 15.0469 70.7249 15.2451 71.4131 15.6416C72.1058 16.0335 72.6458 16.5941 73.0332 17.3232C73.4206 18.0479 73.6143 18.8727 73.6143 19.7979V20.2559C73.6143 21.181 73.4229 22.0036 73.04 22.7236C72.6618 23.4437 72.1263 24.002 71.4336 24.3984C70.7409 24.7949 69.9593 24.9954 69.0889 25H66.0059ZM68.0566 16.708V23.3525H69.0479C69.8499 23.3525 70.4629 23.0905 70.8867 22.5664C71.3105 22.0423 71.527 21.2926 71.5361 20.3174V19.791C71.5361 18.7793 71.3265 18.0137 70.9072 17.4941C70.488 16.9701 69.875 16.708 69.0684 16.708H68.0566ZM77.0664 25H75.084V17.6035H77.0664V25ZM74.9678 15.6895C74.9678 15.3932 75.0658 15.1494 75.2617 14.958C75.4622 14.7666 75.7334 14.6709 76.0752 14.6709C76.4124 14.6709 76.6813 14.7666 76.8818 14.958C77.0824 15.1494 77.1826 15.3932 77.1826 15.6895C77.1826 15.9902 77.0801 16.2363 76.875 16.4277C76.6745 16.6191 76.4079 16.7148 76.0752 16.7148C75.7425 16.7148 75.4736 16.6191 75.2686 16.4277C75.068 16.2363 74.9678 15.9902 74.9678 15.6895ZM82.8564 19.4561C82.5876 19.4196 82.3506 19.4014 82.1455 19.4014C81.3981 19.4014 80.9082 19.6543 80.6758 20.1602V25H78.7002V17.6035H80.5664L80.6211 18.4854C81.0176 17.8063 81.5667 17.4668 82.2686 17.4668C82.4873 17.4668 82.6924 17.4964 82.8838 17.5557L82.8564 19.4561ZM87.0811 25.1367C85.9964 25.1367 85.1123 24.804 84.4287 24.1387C83.7497 23.4733 83.4102 22.5869 83.4102 21.4795V21.2881C83.4102 20.5452 83.5537 19.8822 83.8408 19.2988C84.1279 18.7109 84.5335 18.2598 85.0576 17.9453C85.5863 17.6263 86.1878 17.4668 86.8623 17.4668C87.874 17.4668 88.6693 17.7858 89.248 18.4238C89.8314 19.0618 90.123 19.9665 90.123 21.1377V21.9443H85.4131C85.4769 22.4274 85.6683 22.8148 85.9873 23.1064C86.3109 23.3981 86.7188 23.5439 87.2109 23.5439C87.972 23.5439 88.5667 23.2682 88.9951 22.7168L89.9658 23.8037C89.6696 24.223 89.2686 24.5511 88.7627 24.7881C88.2568 25.0205 87.6963 25.1367 87.0811 25.1367ZM86.8555 19.0664C86.4635 19.0664 86.1445 19.1986 85.8984 19.4629C85.6569 19.7272 85.502 20.1055 85.4336 20.5977H88.1816V20.4404C88.1725 20.0029 88.054 19.6657 87.8262 19.4287C87.5983 19.1872 87.2747 19.0664 86.8555 19.0664ZM94.3271 23.5439C94.6917 23.5439 94.988 23.4437 95.2158 23.2432C95.4437 23.0426 95.5622 22.776 95.5713 22.4434H97.4238C97.4193 22.9447 97.2826 23.4049 97.0137 23.8242C96.7448 24.2389 96.3757 24.5625 95.9062 24.7949C95.4414 25.0228 94.9264 25.1367 94.3613 25.1367C93.304 25.1367 92.4701 24.8018 91.8594 24.1318C91.2487 23.4574 90.9434 22.5277 90.9434 21.3428V21.2129C90.9434 20.0736 91.2464 19.1644 91.8525 18.4854C92.4587 17.8063 93.2904 17.4668 94.3477 17.4668C95.2728 17.4668 96.0133 17.7311 96.5693 18.2598C97.1299 18.7839 97.4147 19.4834 97.4238 20.3584H95.5713C95.5622 19.9756 95.4437 19.6657 95.2158 19.4287C94.988 19.1872 94.6872 19.0664 94.3135 19.0664C93.8532 19.0664 93.5046 19.235 93.2676 19.5723C93.0352 19.9049 92.9189 20.4473 92.9189 21.1992V21.4043C92.9189 22.1654 93.0352 22.7122 93.2676 23.0449C93.5 23.3776 93.8532 23.5439 94.3271 23.5439ZM100.917 15.7852V17.6035H102.182V19.0527H100.917V22.7441C100.917 23.0176 100.969 23.2135 101.074 23.332C101.179 23.4505 101.38 23.5098 101.676 23.5098C101.895 23.5098 102.088 23.4938 102.257 23.4619V24.959C101.869 25.0775 101.471 25.1367 101.061 25.1367C99.6751 25.1367 98.9688 24.4372 98.9414 23.0381V19.0527H97.8613V17.6035H98.9414V15.7852H100.917Z" fill="white"/>
</svg>
