<svg width="140" height="40" viewBox="0 0 140 40" fill="none" xmlns="http://www.w3.org/2000/svg">
<path d="M38.5714 13H21.4286C21.0497 13 20.6863 13.1475 20.4184 13.4101C20.1505 13.6726 20 14.0287 20 14.4V25.6C20 25.9713 20.1505 26.3274 20.4184 26.5899C20.6863 26.8525 21.0497 27 21.4286 27H38.5714C38.9503 27 39.3137 26.8525 39.5816 26.5899C39.8495 26.3274 40 25.9713 40 25.6V14.4C40 14.0287 39.8495 13.6726 39.5816 13.4101C39.3137 13.1475 38.9503 13 38.5714 13ZM37 14.4L30 19.146L23 14.4H37ZM21.4286 25.6V15.037L29.5929 20.574C29.7124 20.6553 29.8545 20.6988 30 20.6988C30.1455 20.6988 30.2876 20.6553 30.4071 20.574L38.5714 15.037V25.6H21.4286Z" fill="white"/>
<rect x="0.5" y="0.5" width="139" height="39" rx="19.5" stroke="#CCCCCC"/>
<path d="M54.877 20.6865H50.9395V23.3525H55.5605V25H48.8887V15.0469H55.5469V16.708H50.9395V19.0801H54.877V20.6865ZM60.4756 21.5342H56.627V19.9414H60.4756V21.5342ZM63.9141 17.6035L63.9756 18.4307C64.4997 17.7881 65.2083 17.4668 66.1016 17.4668C67.054 17.4668 67.708 17.8428 68.0635 18.5947C68.583 17.8428 69.3236 17.4668 70.2852 17.4668C71.0872 17.4668 71.6842 17.7015 72.0762 18.1709C72.4681 18.6357 72.6641 19.3376 72.6641 20.2764V25H70.6816V20.2832C70.6816 19.8639 70.5996 19.5586 70.4355 19.3672C70.2715 19.1712 69.9821 19.0732 69.5674 19.0732C68.9749 19.0732 68.5648 19.3558 68.3369 19.9209L68.3438 25H66.3682V20.29C66.3682 19.8617 66.2839 19.5518 66.1152 19.3604C65.9466 19.1689 65.6595 19.0732 65.2539 19.0732C64.6934 19.0732 64.2878 19.3057 64.0371 19.7705V25H62.0615V17.6035H63.9141ZM78.4746 25C78.3835 24.8223 78.3174 24.6012 78.2764 24.3369C77.7979 24.8701 77.1758 25.1367 76.4102 25.1367C75.6855 25.1367 75.084 24.9271 74.6055 24.5078C74.1315 24.0885 73.8945 23.5599 73.8945 22.9219C73.8945 22.138 74.1839 21.5365 74.7627 21.1172C75.346 20.6979 76.1868 20.486 77.2852 20.4814H78.1943V20.0576C78.1943 19.7158 78.1055 19.4424 77.9277 19.2373C77.7546 19.0322 77.4788 18.9297 77.1006 18.9297C76.7679 18.9297 76.5059 19.0094 76.3145 19.1689C76.1276 19.3285 76.0342 19.5472 76.0342 19.8252H74.0586C74.0586 19.3968 74.1908 19.0003 74.4551 18.6357C74.7194 18.2712 75.0931 17.9863 75.5762 17.7812C76.0592 17.5716 76.6016 17.4668 77.2031 17.4668C78.1146 17.4668 78.8369 17.6969 79.3701 18.1572C79.9079 18.613 80.1768 19.2555 80.1768 20.085V23.291C80.1813 23.9928 80.2793 24.5238 80.4707 24.8838V25H78.4746ZM76.8408 23.626C77.1325 23.626 77.4014 23.5622 77.6475 23.4346C77.8936 23.3024 78.0758 23.127 78.1943 22.9082V21.6367H77.4561C76.4671 21.6367 75.9408 21.9785 75.877 22.6621L75.8701 22.7783C75.8701 23.0244 75.9567 23.2272 76.1299 23.3867C76.3031 23.5462 76.54 23.626 76.8408 23.626ZM83.7793 25H81.7969V17.6035H83.7793V25ZM81.6807 15.6895C81.6807 15.3932 81.7786 15.1494 81.9746 14.958C82.1751 14.7666 82.4463 14.6709 82.7881 14.6709C83.1253 14.6709 83.3942 14.7666 83.5947 14.958C83.7952 15.1494 83.8955 15.3932 83.8955 15.6895C83.8955 15.9902 83.793 16.2363 83.5879 16.4277C83.3874 16.6191 83.1208 16.7148 82.7881 16.7148C82.4554 16.7148 82.1865 16.6191 81.9814 16.4277C81.7809 16.2363 81.6807 15.9902 81.6807 15.6895ZM87.498 25H85.5156V14.5H87.498V25Z" fill="white"/>
</svg>
