<svg width="190" height="40" viewBox="0 0 190 40" fill="none" xmlns="http://www.w3.org/2000/svg">
<rect x="0.5" y="0.5" width="189" height="39" rx="19.5" stroke="#CCCCCC"/>
<path d="M26.877 20.9326H22.9395V25H20.8887V15.0469H27.3691V16.708H22.9395V19.2783H26.877V20.9326ZM32.4824 25C32.3913 24.8223 32.3252 24.6012 32.2842 24.3369C31.8057 24.8701 31.1836 25.1367 30.418 25.1367C29.6934 25.1367 29.0918 24.9271 28.6133 24.5078C28.1393 24.0885 27.9023 23.5599 27.9023 22.9219C27.9023 22.138 28.1917 21.5365 28.7705 21.1172C29.3538 20.6979 30.1947 20.486 31.293 20.4814H32.2021V20.0576C32.2021 19.7158 32.1133 19.4424 31.9355 19.2373C31.7624 19.0322 31.4867 18.9297 31.1084 18.9297C30.7757 18.9297 30.5137 19.0094 30.3223 19.1689C30.1354 19.3285 30.042 19.5472 30.042 19.8252H28.0664C28.0664 19.3968 28.1986 19.0003 28.4629 18.6357C28.7272 18.2712 29.1009 17.9863 29.584 17.7812C30.0671 17.5716 30.6094 17.4668 31.2109 17.4668C32.1224 17.4668 32.8447 17.6969 33.3779 18.1572C33.9157 18.613 34.1846 19.2555 34.1846 20.085V23.291C34.1891 23.9928 34.2871 24.5238 34.4785 24.8838V25H32.4824ZM30.8486 23.626C31.1403 23.626 31.4092 23.5622 31.6553 23.4346C31.9014 23.3024 32.0837 23.127 32.2021 22.9082V21.6367H31.4639C30.4749 21.6367 29.9486 21.9785 29.8848 22.6621L29.8779 22.7783C29.8779 23.0244 29.9645 23.2272 30.1377 23.3867C30.3109 23.5462 30.5479 23.626 30.8486 23.626ZM37.7871 25H35.8047V14.5H37.7871V25ZM42.8252 25.1367C41.7406 25.1367 40.8564 24.804 40.1729 24.1387C39.4938 23.4733 39.1543 22.5869 39.1543 21.4795V21.2881C39.1543 20.5452 39.2979 19.8822 39.585 19.2988C39.8721 18.7109 40.2777 18.2598 40.8018 17.9453C41.3304 17.6263 41.932 17.4668 42.6064 17.4668C43.6182 17.4668 44.4134 17.7858 44.9922 18.4238C45.5755 19.0618 45.8672 19.9665 45.8672 21.1377V21.9443H41.1572C41.221 22.4274 41.4124 22.8148 41.7314 23.1064C42.055 23.3981 42.4629 23.5439 42.9551 23.5439C43.7161 23.5439 44.3109 23.2682 44.7393 22.7168L45.71 23.8037C45.4137 24.223 45.0127 24.5511 44.5068 24.7881C44.001 25.0205 43.4404 25.1367 42.8252 25.1367ZM42.5996 19.0664C42.2077 19.0664 41.8887 19.1986 41.6426 19.4629C41.401 19.7272 41.2461 20.1055 41.1777 20.5977H43.9258V20.4404C43.9167 20.0029 43.7982 19.6657 43.5703 19.4287C43.3424 19.1872 43.0189 19.0664 42.5996 19.0664ZM57.1396 21.3701C57.1396 22.5094 56.8799 23.4232 56.3604 24.1113C55.8454 24.7949 55.1481 25.1367 54.2686 25.1367C53.5212 25.1367 52.9173 24.877 52.457 24.3574V27.8438H50.4814V17.6035H52.3135L52.3818 18.3281C52.8604 17.7539 53.4847 17.4668 54.2549 17.4668C55.1663 17.4668 55.875 17.804 56.3809 18.4785C56.8867 19.153 57.1396 20.0827 57.1396 21.2676V21.3701ZM55.1641 21.2266C55.1641 20.5384 55.041 20.0075 54.7949 19.6338C54.5534 19.2601 54.2002 19.0732 53.7354 19.0732C53.1156 19.0732 52.6895 19.3102 52.457 19.7842V22.8125C52.6986 23.3001 53.1292 23.5439 53.749 23.5439C54.6924 23.5439 55.1641 22.7715 55.1641 21.2266ZM61.7744 25.1367C60.6898 25.1367 59.8057 24.804 59.1221 24.1387C58.443 23.4733 58.1035 22.5869 58.1035 21.4795V21.2881C58.1035 20.5452 58.2471 19.8822 58.5342 19.2988C58.8213 18.7109 59.2269 18.2598 59.751 17.9453C60.2796 17.6263 60.8812 17.4668 61.5557 17.4668C62.5674 17.4668 63.3626 17.7858 63.9414 18.4238C64.5247 19.0618 64.8164 19.9665 64.8164 21.1377V21.9443H60.1064C60.1702 22.4274 60.3617 22.8148 60.6807 23.1064C61.0042 23.3981 61.4121 23.5439 61.9043 23.5439C62.6654 23.5439 63.2601 23.2682 63.6885 22.7168L64.6592 23.8037C64.363 24.223 63.9619 24.5511 63.4561 24.7881C62.9502 25.0205 62.3896 25.1367 61.7744 25.1367ZM61.5488 19.0664C61.1569 19.0664 60.8379 19.1986 60.5918 19.4629C60.3503 19.7272 60.1953 20.1055 60.127 20.5977H62.875V20.4404C62.8659 20.0029 62.7474 19.6657 62.5195 19.4287C62.2917 19.1872 61.9681 19.0664 61.5488 19.0664ZM68.0293 25H66.0469V14.5H68.0293V25ZM69.3555 21.2334C69.3555 20.4997 69.4967 19.8457 69.7793 19.2715C70.0618 18.6973 70.4674 18.2529 70.9961 17.9385C71.5293 17.624 72.1468 17.4668 72.8486 17.4668C73.8467 17.4668 74.6602 17.7721 75.2891 18.3828C75.9225 18.9935 76.2757 19.8229 76.3486 20.8711L76.3623 21.377C76.3623 22.5117 76.0456 23.4232 75.4121 24.1113C74.7786 24.7949 73.9287 25.1367 72.8623 25.1367C71.7959 25.1367 70.9437 24.7949 70.3057 24.1113C69.6722 23.4277 69.3555 22.498 69.3555 21.3223V21.2334ZM71.3311 21.377C71.3311 22.0788 71.4632 22.6165 71.7275 22.9902C71.9919 23.3594 72.3701 23.5439 72.8623 23.5439C73.3408 23.5439 73.7145 23.3617 73.9834 22.9971C74.2523 22.6279 74.3867 22.04 74.3867 21.2334C74.3867 20.5452 74.2523 20.012 73.9834 19.6338C73.7145 19.2555 73.3363 19.0664 72.8486 19.0664C72.3656 19.0664 71.9919 19.2555 71.7275 19.6338C71.4632 20.0075 71.3311 20.5885 71.3311 21.377ZM88.9473 22.1289L90.2871 15.0469H92.3311L90.123 25H88.0586L86.4385 18.3418L84.8184 25H82.7539L80.5459 15.0469H82.5898L83.9365 22.1152L85.5771 15.0469H87.3135L88.9473 22.1289ZM95.2432 18.4102C95.7673 17.7812 96.4258 17.4668 97.2188 17.4668C98.8229 17.4668 99.6364 18.3988 99.6592 20.2627V25H97.6836V20.3174C97.6836 19.8936 97.5924 19.5814 97.4102 19.3809C97.2279 19.1758 96.9248 19.0732 96.501 19.0732C95.9222 19.0732 95.5029 19.2965 95.2432 19.7432V25H93.2676V14.5H95.2432V18.4102ZM105.436 25C105.344 24.8223 105.278 24.6012 105.237 24.3369C104.759 24.8701 104.137 25.1367 103.371 25.1367C102.646 25.1367 102.045 24.9271 101.566 24.5078C101.092 24.0885 100.855 23.5599 100.855 22.9219C100.855 22.138 101.145 21.5365 101.724 21.1172C102.307 20.6979 103.148 20.486 104.246 20.4814H105.155V20.0576C105.155 19.7158 105.066 19.4424 104.889 19.2373C104.715 19.0322 104.44 18.9297 104.062 18.9297C103.729 18.9297 103.467 19.0094 103.275 19.1689C103.089 19.3285 102.995 19.5472 102.995 19.8252H101.02C101.02 19.3968 101.152 19.0003 101.416 18.6357C101.68 18.2712 102.054 17.9863 102.537 17.7812C103.02 17.5716 103.562 17.4668 104.164 17.4668C105.076 17.4668 105.798 17.6969 106.331 18.1572C106.869 18.613 107.138 19.2555 107.138 20.085V23.291C107.142 23.9928 107.24 24.5238 107.432 24.8838V25H105.436ZM103.802 23.626C104.093 23.626 104.362 23.5622 104.608 23.4346C104.854 23.3024 105.037 23.127 105.155 22.9082V21.6367H104.417C103.428 21.6367 102.902 21.9785 102.838 22.6621L102.831 22.7783C102.831 23.0244 102.918 23.2272 103.091 23.3867C103.264 23.5462 103.501 23.626 103.802 23.626ZM111.021 15.7852V17.6035H112.285V19.0527H111.021V22.7441C111.021 23.0176 111.073 23.2135 111.178 23.332C111.283 23.4505 111.483 23.5098 111.779 23.5098C111.998 23.5098 112.192 23.4938 112.36 23.4619V24.959C111.973 25.0775 111.574 25.1367 111.164 25.1367C109.779 25.1367 109.072 24.4372 109.045 23.0381V19.0527H107.965V17.6035H109.045V15.7852H111.021ZM117.392 22.9561C117.392 22.7145 117.271 22.5254 117.029 22.3887C116.792 22.2474 116.41 22.1221 115.881 22.0127C114.122 21.6436 113.242 20.8962 113.242 19.7705C113.242 19.1143 113.513 18.5674 114.056 18.1299C114.603 17.6878 115.316 17.4668 116.195 17.4668C117.134 17.4668 117.884 17.6878 118.444 18.1299C119.009 18.5719 119.292 19.1462 119.292 19.8525H117.316C117.316 19.57 117.225 19.3376 117.043 19.1553C116.861 18.9684 116.576 18.875 116.188 18.875C115.856 18.875 115.598 18.9502 115.416 19.1006C115.234 19.251 115.143 19.4424 115.143 19.6748C115.143 19.8936 115.245 20.0713 115.45 20.208C115.66 20.3402 116.011 20.4564 116.503 20.5566C116.995 20.6523 117.41 20.7617 117.747 20.8848C118.791 21.2676 119.312 21.9307 119.312 22.874C119.312 23.5485 119.023 24.0954 118.444 24.5146C117.866 24.9294 117.118 25.1367 116.202 25.1367C115.582 25.1367 115.031 25.0273 114.548 24.8086C114.069 24.5853 113.693 24.2822 113.42 23.8994C113.146 23.512 113.01 23.0951 113.01 22.6484H114.883C114.901 22.9993 115.031 23.2682 115.272 23.4551C115.514 23.6419 115.838 23.7354 116.243 23.7354C116.621 23.7354 116.906 23.6647 117.098 23.5234C117.294 23.3776 117.392 23.1885 117.392 22.9561ZM126.34 22.9492H122.744L122.061 25H119.88L123.585 15.0469H125.485L129.211 25H127.03L126.34 22.9492ZM123.298 21.2881H125.786L124.535 17.5625L123.298 21.2881ZM136.341 21.3701C136.341 22.5094 136.081 23.4232 135.562 24.1113C135.047 24.7949 134.349 25.1367 133.47 25.1367C132.722 25.1367 132.118 24.877 131.658 24.3574V27.8438H129.683V17.6035H131.515L131.583 18.3281C132.062 17.7539 132.686 17.4668 133.456 17.4668C134.368 17.4668 135.076 17.804 135.582 18.4785C136.088 19.153 136.341 20.0827 136.341 21.2676V21.3701ZM134.365 21.2266C134.365 20.5384 134.242 20.0075 133.996 19.6338C133.755 19.2601 133.401 19.0732 132.937 19.0732C132.317 19.0732 131.891 19.3102 131.658 19.7842V22.8125C131.9 23.3001 132.33 23.5439 132.95 23.5439C133.894 23.5439 134.365 22.7715 134.365 21.2266ZM144.229 21.3701C144.229 22.5094 143.97 23.4232 143.45 24.1113C142.935 24.7949 142.238 25.1367 141.358 25.1367C140.611 25.1367 140.007 24.877 139.547 24.3574V27.8438H137.571V17.6035H139.403L139.472 18.3281C139.95 17.7539 140.575 17.4668 141.345 17.4668C142.256 17.4668 142.965 17.804 143.471 18.4785C143.977 19.153 144.229 20.0827 144.229 21.2676V21.3701ZM142.254 21.2266C142.254 20.5384 142.131 20.0075 141.885 19.6338C141.643 19.2601 141.29 19.0732 140.825 19.0732C140.205 19.0732 139.779 19.3102 139.547 19.7842V22.8125C139.788 23.3001 140.219 23.5439 140.839 23.5439C141.782 23.5439 142.254 22.7715 142.254 21.2266Z" fill="#333333"/>
<path fill-rule="evenodd" clip-rule="evenodd" d="M172.94 12.9065C170.966 11.0332 168.341 10.0011 165.544 10C159.781 10 155.09 14.4457 155.088 19.9098C155.087 21.6565 155.568 23.3616 156.483 24.8645L155 30L160.543 28.6218C162.07 29.4115 163.79 29.8276 165.54 29.8281H165.544C171.307 29.8281 175.998 25.3821 176 19.9177C176.001 17.2695 174.915 14.7797 172.94 12.9065ZM165.544 28.1544H165.54C163.981 28.1538 162.452 27.7566 161.117 27.0062L160.8 26.8276L157.511 27.6455L158.388 24.6058L158.182 24.2942C157.312 22.9827 156.852 21.4668 156.853 19.9104C156.855 15.3688 160.754 11.6738 165.547 11.6738C167.869 11.6746 170.051 12.5325 171.692 14.0895C173.332 15.6465 174.235 17.7161 174.235 19.9171C174.233 24.4591 170.334 28.1544 165.544 28.1544ZM170.311 21.9851C170.05 21.8611 168.765 21.2622 168.526 21.1794C168.286 21.0968 168.112 21.0557 167.938 21.3035C167.764 21.5513 167.263 22.1091 167.111 22.2743C166.958 22.4396 166.806 22.4603 166.545 22.3363C166.283 22.2124 165.442 21.9508 164.444 21.1072C163.667 20.4506 163.143 19.6396 162.99 19.3918C162.838 19.1438 162.989 19.0227 163.105 18.8865C163.388 18.5536 163.671 18.2046 163.758 18.0394C163.845 17.8741 163.801 17.7295 163.736 17.6056C163.671 17.4817 163.148 16.2628 162.931 15.7668C162.718 15.2842 162.503 15.3494 162.343 15.3418C162.19 15.3346 162.016 15.3331 161.842 15.3331C161.668 15.3331 161.385 15.395 161.145 15.6431C160.906 15.891 160.231 16.49 160.231 17.7089C160.231 18.9277 161.167 20.1052 161.298 20.2705C161.428 20.4358 163.14 22.937 165.761 24.0095C166.384 24.2649 166.871 24.4171 167.25 24.5312C167.876 24.7197 168.446 24.6931 168.896 24.6294C169.398 24.5582 170.441 24.0303 170.659 23.4519C170.877 22.8734 170.877 22.3777 170.812 22.2743C170.746 22.171 170.572 22.1091 170.311 21.9851Z" fill="#25D366"/>
</svg>
