<svg width="150" height="33" viewBox="0 0 150 33" fill="none" xmlns="http://www.w3.org/2000/svg">
<path d="M127.881 14.9773L128.271 28.6037C128.304 29.7782 129.828 30.225 130.497 29.2567L138.858 17.1694L127.881 14.9773Z" fill="#FF1970"/>
<path d="M118.896 5.61411L138.858 17.1695L149.854 1.2732C150.252 0.697895 149.782 -0.0761474 149.084 0.00603866L119.332 3.5236C118.252 3.65061 117.956 5.07019 118.896 5.61411Z" fill="#0093FF"/>
<path d="M4.3449 12.6298C4.70873 12.588 5.02746 12.8704 5.02746 13.2335V24.1942C5.02746 24.904 5.19885 26.1263 5.59876 26.8077C6.22719 28.0853 7.99823 28.9385 10.9134 28.9385C13.8571 28.9385 15.5996 28.0868 16.2566 26.8077C16.6565 26.1263 16.8279 24.9055 16.8279 24.1942V13.6759C16.8279 13.368 17.0609 13.108 17.3691 13.0722L21.1457 12.6313C21.5095 12.5895 21.8298 12.8719 21.8298 13.235V25.2745C21.8298 26.978 21.487 28.825 20.4872 29.9322C18.659 31.9779 15.4297 33 10.9149 33C6.42865 33 3.17073 31.9779 1.37112 29.9322C0.371346 28.825 0 26.978 0 25.2745V13.6773C0 13.368 0.23303 13.1095 0.541232 13.0737L4.3449 12.6298Z" fill="#0093FF"/>
<path d="M53.5641 13.0722L57.3692 12.6298C57.7331 12.588 58.0518 12.8704 58.0518 13.2335V31.8225C58.0518 32.1587 57.7782 32.4307 57.4399 32.4307H53.6347C53.2965 32.4307 53.0228 32.1587 53.0228 31.8225V13.6759C53.0228 13.368 53.2559 13.108 53.5641 13.0722Z" fill="#0093FF"/>
<path d="M63.1876 12.5505H79.9312C80.4243 12.5505 80.7145 13.0989 80.4364 13.5024L78.8112 15.8559C78.5826 16.1861 78.2053 16.3834 77.8024 16.3834H67.5505V20.6436H75.9065C76.2448 20.6436 76.5184 20.9156 76.5184 21.2518V23.6995C76.5184 24.0357 76.2448 24.3076 75.9065 24.3076H67.5505V31.8224C67.5505 32.1586 67.2769 32.4306 66.9386 32.4306H63.1891C62.8508 32.4306 62.5772 32.1586 62.5772 31.8239V13.1602C62.5742 12.8225 62.8493 12.5505 63.1876 12.5505Z" fill="#0093FF"/>
<path d="M83.6702 12.5505H102.298C102.791 12.5505 103.081 13.1004 102.801 13.5039L101.17 15.8589C100.942 16.1891 100.564 16.3849 100.161 16.3849H95.1954V31.8224C95.1954 32.1586 94.9218 32.4306 94.5835 32.4306H90.7784C90.4401 32.4306 90.1665 32.1586 90.1665 31.8224V16.3849H83.6687C83.3304 16.3849 83.0568 16.1129 83.0568 15.7767V13.1587C83.0583 12.8225 83.3319 12.5505 83.6702 12.5505Z" fill="#0093FF"/>
<path d="M120.779 16.1996C120.48 16.6314 119.939 16.8182 119.431 16.6762C118.16 16.3206 116.558 16.0143 114.623 16.0143C112.452 16.0143 110.765 16.3834 109.594 17.0931C108.08 18.0017 107.107 19.6215 107.107 22.4322C107.107 27.2035 109.937 28.907 114.68 28.907C117.553 28.907 119.515 28.2884 120.958 27.7714C121.268 27.6608 121.608 27.8132 121.731 28.1165L122.803 30.751C122.928 31.0573 122.786 31.4055 122.481 31.537C121.127 32.1212 118.638 32.9984 114.623 32.9984C106.993 32.9984 102.221 29.8454 102.221 22.5757C102.221 17.8044 104.194 14.765 107.221 13.2887C108.993 12.4085 111.336 11.9827 114.309 11.9827C117.346 11.9827 119.571 12.4892 121.862 13.2752C122.247 13.4067 122.4 13.8655 122.17 14.1987L120.779 16.1996Z" fill="#0093FF"/>
<path d="M45.2141 13.2035C43.5844 12.3801 41.8419 11.9827 39.1853 11.9827C38.7509 11.9827 38.3284 12.0096 37.918 12.0559L37.8849 12.0604C37.8774 12.0619 37.8683 12.0619 37.8593 12.0634L26.8903 13.3589C26.5851 13.3948 26.3551 13.6518 26.3551 13.9581V31.8239C26.3551 32.1601 26.6287 32.432 26.967 32.432H30.7722C31.1104 32.432 31.3841 32.1601 31.3841 31.8239L31.3811 16.4147C31.3811 16.4147 34.8675 16.08 37.1557 15.9933C37.4263 15.9799 37.1557 15.9993 37.1557 15.9993C37.4248 15.9754 37.6924 15.9605 37.9555 15.9605C39.3567 15.9605 40.6422 16.1592 41.6134 16.6135C42.6132 17.1529 43.5002 18.317 43.5002 19.9084V31.8254C43.5002 32.1616 43.7738 32.4335 44.1121 32.4335H47.8887C48.227 32.4335 48.5006 32.1616 48.5006 31.8254V18.8011C48.4991 15.8155 46.8994 14.112 45.2141 13.2035Z" fill="#0093FF"/>
</svg>
