<svg width="150" height="33" viewBox="0 0 150 33" fill="none" xmlns="http://www.w3.org/2000/svg">
<path d="M127.881 14.9775L128.271 28.604C128.304 29.7785 129.828 30.2253 130.497 29.257L138.858 17.1697L127.881 14.9775Z" fill="#FF1970"/>
<path d="M118.896 5.61411L138.858 17.1695L149.854 1.2732C150.252 0.697895 149.782 -0.0761474 149.084 0.00603866L119.332 3.5236C118.252 3.65061 117.956 5.07019 118.896 5.61411Z" fill="#0093FF"/>
<path d="M4.3449 12.6296C4.70873 12.5878 5.02746 12.8702 5.02746 13.2333V24.1939C5.02746 24.9037 5.19885 26.126 5.59876 26.8074C6.22719 28.0851 7.99823 28.9383 10.9134 28.9383C13.8571 28.9383 15.5996 28.0866 16.2566 26.8074C16.6565 26.126 16.8279 24.9052 16.8279 24.1939V13.6756C16.8279 13.3678 17.0609 13.1078 17.3691 13.0719L21.1457 12.6311C21.5095 12.5893 21.8298 12.8717 21.8298 13.2348V25.2743C21.8298 26.9778 21.487 28.8247 20.4872 29.932C18.659 31.9777 15.4297 32.9998 10.9149 32.9998C6.42865 32.9998 3.17073 31.9777 1.37112 29.932C0.371346 28.8247 0 26.9778 0 25.2743V13.6771C0 13.3678 0.23303 13.1093 0.541232 13.0734L4.3449 12.6296Z" fill="#0093FF"/>
<path d="M53.5641 13.0719L57.3692 12.6296C57.7331 12.5878 58.0518 12.8702 58.0518 13.2333V31.8223C58.0518 32.1585 57.7782 32.4305 57.4399 32.4305H53.6347C53.2965 32.4305 53.0228 32.1585 53.0228 31.8223V13.6756C53.0228 13.3678 53.2559 13.1078 53.5641 13.0719Z" fill="#0093FF"/>
<path d="M63.1876 12.5508H79.9312C80.4243 12.5508 80.7145 13.0992 80.4364 13.5026L78.8112 15.8562C78.5826 16.1864 78.2053 16.3836 77.8024 16.3836H67.5505V20.6439H75.9065C76.2448 20.6439 76.5184 20.9158 76.5184 21.252V23.6997C76.5184 24.0359 76.2448 24.3079 75.9065 24.3079H67.5505V31.8227C67.5505 32.1589 67.2769 32.4308 66.9386 32.4308H63.1891C62.8508 32.4308 62.5772 32.1589 62.5772 31.8242V13.1605C62.5742 12.8227 62.8493 12.5508 63.1876 12.5508Z" fill="#0093FF"/>
<path d="M83.6702 12.5508H102.298C102.791 12.5508 103.081 13.1007 102.801 13.5041L101.17 15.8591C100.942 16.1894 100.564 16.3851 100.161 16.3851H95.1954V31.8227C95.1954 32.1589 94.9218 32.4308 94.5835 32.4308H90.7784C90.4401 32.4308 90.1665 32.1589 90.1665 31.8227V16.3851H83.6687C83.3304 16.3851 83.0568 16.1132 83.0568 15.777V13.159C83.0583 12.8227 83.3319 12.5508 83.6702 12.5508Z" fill="#0093FF"/>
<path d="M120.779 16.1998C120.48 16.6317 119.939 16.8184 119.431 16.6765C118.16 16.3208 116.558 16.0145 114.623 16.0145C112.452 16.0145 110.765 16.3836 109.594 17.0934C108.08 18.0019 107.107 19.6217 107.107 22.4325C107.107 27.2038 109.937 28.9073 114.68 28.9073C117.553 28.9073 119.515 28.2886 120.958 27.7716C121.268 27.661 121.608 27.8134 121.731 28.1168L122.803 30.7512C122.928 31.0575 122.786 31.4057 122.481 31.5372C121.127 32.1215 118.638 32.9986 114.623 32.9986C106.993 32.9986 102.221 29.8457 102.221 22.5759C102.221 17.8047 104.194 14.7653 107.221 13.2889C108.993 12.4088 111.336 11.9829 114.309 11.9829C117.346 11.9829 119.571 12.4895 121.862 13.2755C122.247 13.407 122.4 13.8657 122.17 14.1989L120.779 16.1998Z" fill="#0093FF"/>
<path d="M45.2141 13.2037C43.5844 12.3804 41.8419 11.9829 39.1853 11.9829C38.7509 11.9829 38.3284 12.0098 37.918 12.0561L37.8849 12.0606C37.8774 12.0621 37.8683 12.0621 37.8593 12.0636L26.8903 13.3592C26.5851 13.395 26.3551 13.652 26.3551 13.9584V31.8241C26.3551 32.1603 26.6287 32.4323 26.967 32.4323H30.7722C31.1104 32.4323 31.3841 32.1603 31.3841 31.8241L31.3811 16.415C31.3811 16.415 34.8675 16.0803 37.1557 15.9936C37.4263 15.9801 37.1557 15.9996 37.1557 15.9996C37.4248 15.9757 37.6924 15.9607 37.9555 15.9607C39.3567 15.9607 40.6422 16.1595 41.6134 16.6137C42.6132 17.1532 43.5002 18.3172 43.5002 19.9086V31.8256C43.5002 32.1618 43.7738 32.4338 44.1121 32.4338H47.8887C48.227 32.4338 48.5006 32.1618 48.5006 31.8256V18.8014C48.4991 15.8158 46.8994 14.1123 45.2141 13.2037Z" fill="#0093FF"/>
</svg>
