<svg width="116" height="44" viewBox="0 0 116 44" fill="none" xmlns="http://www.w3.org/2000/svg">
<rect width="116" height="44" rx="4" fill="black" fill-opacity="0.25"/>
<path d="M95.41 21.9999L99.71 17.7099C99.8983 17.5216 100.004 17.2662 100.004 16.9999C100.004 16.7336 99.8983 16.4782 99.71 16.2899C99.5217 16.1016 99.2663 15.9958 99 15.9958C98.7337 15.9958 98.4783 16.1016 98.29 16.2899L94 20.5899L89.71 16.2899C89.5217 16.1016 89.2663 15.9958 89 15.9958C88.7337 15.9958 88.4783 16.1016 88.29 16.2899C88.1017 16.4782 87.9959 16.7336 87.9959 16.9999C87.9959 17.2662 88.1017 17.5216 88.29 17.7099L92.59 21.9999L88.29 26.2899C88.1963 26.3829 88.1219 26.4935 88.0711 26.6154C88.0203 26.7372 87.9942 26.8679 87.9942 26.9999C87.9942 27.132 88.0203 27.2627 88.0711 27.3845C88.1219 27.5064 88.1963 27.617 88.29 27.7099C88.383 27.8037 88.4936 27.8781 88.6154 27.9288C88.7373 27.9796 88.868 28.0057 89 28.0057C89.132 28.0057 89.2627 27.9796 89.3846 27.9288C89.5064 27.8781 89.617 27.8037 89.71 27.7099L94 23.4099L98.29 27.7099C98.383 27.8037 98.4936 27.8781 98.6154 27.9288C98.7373 27.9796 98.868 28.0057 99 28.0057C99.132 28.0057 99.2627 27.9796 99.3846 27.9288C99.5064 27.8781 99.617 27.8037 99.71 27.7099C99.8037 27.617 99.8781 27.5064 99.9289 27.3845C99.9797 27.2627 100.006 27.132 100.006 26.9999C100.006 26.8679 99.9797 26.7372 99.9289 26.6154C99.8781 26.4935 99.8037 26.3829 99.71 26.2899L95.41 21.9999Z" fill="#F37D90"/>
<path d="M24.0518 27.07C23.8744 27.07 23.7344 27.0187 23.6318 26.916C23.5291 26.804 23.4778 26.6593 23.4778 26.482V17.69C23.4778 17.522 23.5291 17.3867 23.6318 17.284C23.7438 17.1813 23.8884 17.13 24.0658 17.13H29.1618C29.3298 17.13 29.4604 17.172 29.5538 17.256C29.6471 17.34 29.6938 17.4613 29.6938 17.62C29.6938 17.7693 29.6471 17.886 29.5538 17.97C29.4604 18.054 29.3298 18.096 29.1618 18.096H24.6118V21.498H28.8818C29.0498 21.498 29.1804 21.54 29.2738 21.624C29.3671 21.708 29.4138 21.8293 29.4138 21.988C29.4138 22.1373 29.3671 22.254 29.2738 22.338C29.1804 22.422 29.0498 22.464 28.8818 22.464H24.6118V26.482C24.6118 26.6593 24.5604 26.804 24.4578 26.916C24.3644 27.0187 24.2291 27.07 24.0518 27.07ZM31.8587 27C31.6814 27 31.5367 26.9487 31.4247 26.846C31.3221 26.7433 31.2707 26.608 31.2707 26.44V17.69C31.2707 17.522 31.3221 17.3867 31.4247 17.284C31.5367 17.1813 31.6814 17.13 31.8587 17.13H37.0947C37.2627 17.13 37.3934 17.172 37.4867 17.256C37.5801 17.34 37.6267 17.4567 37.6267 17.606C37.6267 17.7553 37.5801 17.872 37.4867 17.956C37.3934 18.04 37.2627 18.082 37.0947 18.082H32.4047V21.512H36.8147C36.9827 21.512 37.1134 21.554 37.2067 21.638C37.3001 21.722 37.3467 21.8387 37.3467 21.988C37.3467 22.1373 37.3001 22.254 37.2067 22.338C37.1134 22.422 36.9827 22.464 36.8147 22.464H32.4047V26.048H37.0947C37.2627 26.048 37.3934 26.09 37.4867 26.174C37.5801 26.2487 37.6267 26.3653 37.6267 26.524C37.6267 26.6733 37.5801 26.79 37.4867 26.874C37.3934 26.958 37.2627 27 37.0947 27H31.8587ZM43.5505 27.112C42.6172 27.112 41.8098 26.9113 41.1285 26.51C40.4472 26.0993 39.9198 25.516 39.5465 24.76C39.1825 23.9947 39.0005 23.094 39.0005 22.058C39.0005 21.0313 39.1825 20.14 39.5465 19.384C39.9198 18.6187 40.4472 18.0353 41.1285 17.634C41.8098 17.2233 42.6172 17.018 43.5505 17.018C44.1758 17.018 44.7638 17.1207 45.3145 17.326C45.8745 17.522 46.3598 17.8067 46.7705 18.18C46.9198 18.32 46.9945 18.4833 46.9945 18.67C46.9945 18.8007 46.9572 18.9173 46.8825 19.02C46.8078 19.1133 46.7192 19.16 46.6165 19.16C46.5045 19.16 46.3692 19.1087 46.2105 19.006C45.7345 18.6327 45.3005 18.3713 44.9085 18.222C44.5258 18.0727 44.0825 17.998 43.5785 17.998C42.4958 17.998 41.6605 18.3527 41.0725 19.062C40.4938 19.762 40.2045 20.7607 40.2045 22.058C40.2045 23.3647 40.4938 24.3727 41.0725 25.082C41.6605 25.782 42.4958 26.132 43.5785 26.132C44.0732 26.132 44.5165 26.0573 44.9085 25.908C45.3005 25.7587 45.7345 25.4973 46.2105 25.124C46.3692 25.0213 46.5045 24.97 46.6165 24.97C46.7192 24.97 46.8078 25.0167 46.8825 25.11C46.9572 25.2033 46.9945 25.32 46.9945 25.46C46.9945 25.6467 46.9198 25.81 46.7705 25.95C46.3598 26.3233 45.8745 26.6127 45.3145 26.818C44.7638 27.014 44.1758 27.112 43.5505 27.112ZM56.4551 17.06C56.6324 17.06 56.7678 17.116 56.8611 17.228C56.9638 17.3307 57.0151 17.4707 57.0151 17.648V26.482C57.0151 26.6593 56.9638 26.804 56.8611 26.916C56.7678 27.0187 56.6324 27.07 56.4551 27.07C56.2778 27.07 56.1378 27.0187 56.0351 26.916C55.9324 26.804 55.8811 26.6593 55.8811 26.482V22.478H49.9731V26.482C49.9731 26.6593 49.9218 26.804 49.8191 26.916C49.7164 27.0187 49.5764 27.07 49.3991 27.07C49.2218 27.07 49.0818 27.0187 48.9791 26.916C48.8858 26.804 48.8391 26.6593 48.8391 26.482V17.648C48.8391 17.4707 48.8858 17.3307 48.9791 17.228C49.0818 17.116 49.2218 17.06 49.3991 17.06C49.5764 17.06 49.7164 17.116 49.8191 17.228C49.9218 17.3307 49.9731 17.4707 49.9731 17.648V21.498H55.8811V17.648C55.8811 17.4707 55.9324 17.3307 56.0351 17.228C56.1378 17.116 56.2778 17.06 56.4551 17.06ZM67.9465 26.342C67.9838 26.4167 68.0025 26.496 68.0025 26.58C68.0025 26.72 67.9465 26.8367 67.8345 26.93C67.7318 27.0233 67.6058 27.07 67.4565 27.07C67.2231 27.07 67.0598 26.958 66.9665 26.734L65.9725 24.466H60.6945L59.6865 26.734C59.5931 26.958 59.4298 27.07 59.1965 27.07C59.0471 27.07 58.9165 27.0233 58.8045 26.93C58.6925 26.8273 58.6365 26.706 58.6365 26.566C58.6365 26.4913 58.6551 26.4167 58.6925 26.342L62.6965 17.438C62.7525 17.3073 62.8365 17.2093 62.9485 17.144C63.0605 17.0787 63.1818 17.046 63.3125 17.046C63.4525 17.046 63.5785 17.0833 63.6905 17.158C63.8025 17.2233 63.8865 17.3167 63.9425 17.438L67.9465 26.342ZM61.1145 23.514H65.5525L63.3265 18.488L61.1145 23.514ZM77.1523 26.286C77.2177 26.3887 77.2503 26.496 77.2503 26.608C77.2503 26.748 77.1943 26.8647 77.0823 26.958C76.9797 27.042 76.8583 27.084 76.7183 27.084C76.5037 27.084 76.3357 26.9907 76.2143 26.804L74.3383 23.836C74.0957 23.4533 73.8437 23.192 73.5823 23.052C73.321 22.9027 72.9663 22.828 72.5183 22.828H70.7543V26.482C70.7543 26.6593 70.703 26.804 70.6003 26.916C70.4977 27.0187 70.3623 27.07 70.1943 27.07C70.017 27.07 69.877 27.0187 69.7743 26.916C69.6717 26.804 69.6203 26.6593 69.6203 26.482V17.69C69.6203 17.522 69.6717 17.3867 69.7743 17.284C69.8863 17.1813 70.031 17.13 70.2083 17.13H73.6803C74.7537 17.13 75.5703 17.368 76.1303 17.844C76.6997 18.32 76.9843 19.02 76.9843 19.944C76.9843 20.728 76.7557 21.358 76.2983 21.834C75.8503 22.31 75.2063 22.5993 74.3663 22.702C74.5997 22.7767 74.8097 22.898 74.9963 23.066C75.183 23.234 75.3697 23.4673 75.5563 23.766L77.1523 26.286ZM73.5823 21.876C74.3477 21.876 74.917 21.7173 75.2903 21.4C75.673 21.0827 75.8643 20.602 75.8643 19.958C75.8643 19.3233 75.6777 18.852 75.3043 18.544C74.931 18.236 74.357 18.082 73.5823 18.082H70.7543V21.876H73.5823Z" fill="white"/>
</svg>
