<svg width="19" height="20" viewBox="0 0 19 20" fill="none" xmlns="http://www.w3.org/2000/svg">
<path d="M9.50212 4.87225C6.8063 4.87225 4.63185 7.16166 4.63185 10C4.63185 12.8383 6.8063 15.1277 9.50212 15.1277C12.1979 15.1277 14.3724 12.8383 14.3724 10C14.3724 7.16166 12.1979 4.87225 9.50212 4.87225ZM9.50212 13.3337C7.76001 13.3337 6.33581 11.8387 6.33581 10C6.33581 8.16133 7.75577 6.6663 9.50212 6.6663C11.2485 6.6663 12.6684 8.16133 12.6684 10C12.6684 11.8387 11.2442 13.3337 9.50212 13.3337ZM15.7076 4.6625C15.7076 5.32746 15.1989 5.85853 14.5716 5.85853C13.94 5.85853 13.4356 5.32299 13.4356 4.6625C13.4356 4.00201 13.9443 3.46647 14.5716 3.46647C15.1989 3.46647 15.7076 4.00201 15.7076 4.6625ZM18.9332 5.87638C18.8612 4.27424 18.5136 2.85507 17.3988 1.68582C16.2883 0.516568 14.9404 0.150619 13.4187 0.070289C11.8504 -0.0234297 7.14964 -0.0234297 5.58132 0.070289C4.06386 0.146156 2.71595 0.512105 1.60117 1.68136C0.486392 2.85061 0.143056 4.26978 0.0667596 5.87192C-0.0222532 7.52315 -0.0222532 12.4724 0.0667596 14.1236C0.138818 15.7258 0.486392 17.1449 1.60117 18.3142C2.71595 19.4834 4.05962 19.8494 5.58132 19.9297C7.14964 20.0234 11.8504 20.0234 13.4187 19.9297C14.9404 19.8538 16.2883 19.4879 17.3988 18.3142C18.5094 17.1449 18.8569 15.7258 18.9332 14.1236C19.0223 12.4724 19.0223 7.52761 18.9332 5.87638ZM16.9071 15.8953C16.5765 16.7701 15.9365 17.4439 15.1015 17.7965C13.851 18.3186 10.8839 18.1981 9.50212 18.1981C8.1203 18.1981 5.14897 18.3142 3.90279 17.7965C3.072 17.4484 2.43196 16.7745 2.0971 15.8953C1.60117 14.5788 1.71562 11.4549 1.71562 10C1.71562 8.54513 1.60541 5.41671 2.0971 4.10465C2.42772 3.22995 3.06776 2.55606 3.90279 2.2035C5.15321 1.68136 8.1203 1.80185 9.50212 1.80185C10.8839 1.80185 13.8553 1.68582 15.1015 2.2035C15.9322 2.5516 16.5723 3.22548 16.9071 4.10465C17.4031 5.42118 17.2886 8.54513 17.2886 10C17.2886 11.4549 17.4031 14.5833 16.9071 15.8953Z" fill="#CCCCCC"/>
</svg>
