<svg width="21" height="20" viewBox="0 0 21 20" fill="none" xmlns="http://www.w3.org/2000/svg">
<path d="M19.5 0H1.49531C0.670312 0 0 0.647322 0 1.44196V18.558C0 19.3527 0.670312 20 1.49531 20H19.5C20.325 20 21 19.3527 21 18.558V1.44196C21 0.647322 20.325 0 19.5 0ZM6.34687 17.1429H3.23438V7.59821H6.35156V17.1429H6.34687ZM4.79062 6.29464C3.79219 6.29464 2.98594 5.52232 2.98594 4.57589C2.98594 3.62946 3.79219 2.85714 4.79062 2.85714C5.78437 2.85714 6.59531 3.62946 6.59531 4.57589C6.59531 5.52679 5.78906 6.29464 4.79062 6.29464ZM18.0141 17.1429H14.9016V12.5C14.9016 11.3929 14.8781 9.96875 13.2844 9.96875C11.6625 9.96875 11.4141 11.1741 11.4141 12.4196V17.1429H8.30156V7.59821H11.2875V8.90179H11.3297C11.7469 8.15179 12.7641 7.36161 14.2781 7.36161C17.4281 7.36161 18.0141 9.33929 18.0141 11.9107V17.1429Z" fill="#CCCCCC"/>
</svg>
