<svg width="21" height="20" viewBox="0 0 21 20" fill="none" xmlns="http://www.w3.org/2000/svg">
<path fill-rule="evenodd" clip-rule="evenodd" d="M17.9403 2.90649C15.9662 1.0332 13.3409 0.00109863 10.5439 0C4.78056 0 0.0900243 4.44568 0.0877061 9.90979C0.0869333 11.6565 0.568351 13.3616 1.4834 14.8645L0 20L5.543 18.6218C7.07032 19.4115 8.7898 19.8276 10.5397 19.8281H10.544C16.3068 19.8281 20.9978 15.3821 21 9.91772C21.0012 7.26953 19.9146 4.77966 17.9403 2.90649ZM10.5439 18.1544H10.5403C8.98092 18.1538 7.45154 17.7566 6.11701 17.0062L5.79981 16.8276L2.51051 17.6455L3.38847 14.6058L3.18176 14.2942C2.31178 12.9827 1.85239 11.4668 1.85316 9.9104C1.85496 5.36877 5.7537 1.67383 10.5474 1.67383C12.8687 1.67456 15.0508 2.53247 16.6916 4.08948C18.3324 5.64648 19.2354 7.71606 19.2347 9.91711C19.2326 14.4591 15.3341 18.1544 10.5439 18.1544ZM15.311 11.9851C15.0498 11.8611 13.7652 11.2622 13.5257 11.1794C13.2864 11.0968 13.112 11.0557 12.938 11.3035C12.7637 11.5513 12.2631 12.1091 12.1106 12.2743C11.9582 12.4396 11.8059 12.4603 11.5446 12.3363C11.2833 12.2124 10.4415 11.9508 9.44353 11.1072C8.66693 10.4506 8.14263 9.63965 7.99014 9.39185C7.83791 9.1438 7.98885 9.02271 8.10476 8.88647C8.38758 8.55359 8.67079 8.20459 8.75786 8.03943C8.84505 7.87415 8.80139 7.72949 8.73596 7.60559C8.67079 7.48169 8.14829 6.26282 7.93064 5.76685C7.71839 5.28418 7.50318 5.34937 7.34271 5.3418C7.19048 5.33459 7.01623 5.33313 6.84197 5.33313C6.66785 5.33313 6.38477 5.39502 6.14522 5.64307C5.9058 5.89099 5.23094 6.48999 5.23094 7.70886C5.23094 8.92773 6.16711 10.1052 6.29771 10.2705C6.4283 10.4358 8.14005 12.937 10.7608 14.0095C11.3841 14.2649 11.8707 14.4171 12.2503 14.5312C12.8762 14.7197 13.4456 14.6931 13.8958 14.6294C14.3978 14.5582 15.4414 14.0303 15.6593 13.4519C15.877 12.8734 15.877 12.3777 15.8116 12.2743C15.7464 12.171 15.5721 12.1091 15.311 11.9851Z" fill="#CCCCCC"/>
</svg>
