<svg width="20" height="20" viewBox="0 0 20 20" fill="none" xmlns="http://www.w3.org/2000/svg">
<path d="M20 1.10268V18.8929C20 19.5045 19.5045 19.9955 18.8973 19.9955H13.7991V12.2545H16.3973L16.7857 9.23661H13.7946V7.30804C13.7946 6.43304 14.0357 5.83929 15.2902 5.83929H16.8884V3.13839C16.6116 3.10268 15.6652 3.01786 14.558 3.01786C12.2545 3.01786 10.6741 4.42411 10.6741 7.00893V9.23661H8.06696V12.2545H10.6741V20H1.10268C0.495536 20 0 19.5045 0 18.8973V1.10268C0 0.495536 0.495536 0 1.10268 0H18.8929C19.5045 0 20 0.495536 20 1.10268Z" fill="#CCCCCC"/>
</svg>
