<svg width="50" height="40" viewBox="0 0 50 40" fill="none" xmlns="http://www.w3.org/2000/svg">
<rect x="1" y="1" width="48" height="38" rx="19" stroke="#CCCCCC" stroke-width="2"/>
<path d="M31.1851 22.5139C31.6814 22.691 34.3427 23.9729 34.8838 24.2384C35.425 24.5038 35.786 24.6363 35.921 24.8574C36.0565 25.0787 36.0565 26.1398 35.6056 27.378C35.1541 28.616 32.992 29.7461 31.9519 29.8984C31.0191 30.0348 29.8395 30.0917 28.5427 29.6883C27.7563 29.444 26.7482 29.1182 25.4568 28.5716C20.0271 26.2759 16.4807 20.9221 16.2101 20.5683L16.2053 20.562C15.9173 20.1854 14 17.6791 14 15.0852C14 12.4762 15.3982 11.1941 15.8942 10.6634C16.3905 10.1325 16.977 10 17.3378 10C17.6988 10 18.0598 10.0031 18.3752 10.0186C18.7076 10.0348 19.1535 9.89522 19.5933 10.9284C20.0442 11.99 21.1267 14.5989 21.2617 14.8641C21.3973 15.1293 21.4877 15.439 21.3071 15.7928C21.1267 16.1463 20.54 16.8933 19.954 17.6058C19.7139 17.8974 19.4011 18.1566 19.7165 18.6876C20.0325 19.218 21.1187 20.9537 22.7277 22.3592C24.7953 24.1649 26.5393 24.7249 27.0807 24.9901C27.6221 25.2556 27.9375 25.2111 28.2534 24.8574C28.5693 24.5038 29.6065 23.3097 29.9675 22.7793C30.328 22.2489 30.6893 22.337 31.1851 22.5139Z" fill="#333333"/>
</svg>
