<svg width="110" height="40" viewBox="0 0 110 40" fill="none" xmlns="http://www.w3.org/2000/svg">
<rect x="0.5" y="0.5" width="109" height="39" rx="19.5" stroke="#CCCCCC"/>
<path d="M62.5714 13H45.4286C45.0497 13 44.6863 13.1475 44.4184 13.4101C44.1505 13.6726 44 14.0287 44 14.4V25.6C44 25.9713 44.1505 26.3274 44.4184 26.5899C44.6863 26.8525 45.0497 27 45.4286 27H62.5714C62.9503 27 63.3137 26.8525 63.5816 26.5899C63.8495 26.3274 64 25.9713 64 25.6V14.4C64 14.0287 63.8495 13.6726 63.5816 13.4101C63.3137 13.1475 62.9503 13 62.5714 13ZM61 14.4L54 19.146L47 14.4H61ZM45.4286 25.6V15.037L53.5929 20.574C53.7124 20.6553 53.8545 20.6988 54 20.6988C54.1455 20.6988 54.2876 20.6553 54.4071 20.574L62.5714 15.037V25.6H45.4286Z" fill="#333333"/>
<path d="M83 10C78.0575 10 74 14.1722 74 19.3401C74 22.0934 75.1775 24.5397 77 26.2437V30L80.3285 28.1978C81.1745 28.4739 82.0595 28.6802 83 28.6802C87.9425 28.6802 92 24.508 92 19.3401C92 14.1722 87.9425 10 83 10ZM83 11.6244C87.1693 11.6244 90.5 15.0891 90.5 19.3401C90.5 23.5911 87.1693 27.0558 83 27.0558C82.1038 27.0558 81.248 26.8715 80.4455 26.5734L80.141 26.4719L78.5 27.3604V25.533L78.2188 25.2788C76.5545 23.8583 75.5 21.7295 75.5 19.3401C75.5 15.0891 78.8307 11.6244 83 11.6244ZM82.1562 16.7769L77.633 21.9545L81.6875 19.518L83.8438 22.0309L88.3205 16.776L84.359 19.1882L82.1562 16.7769Z" fill="#333333"/>
<path d="M35.6693 25.0998L31.562 21.3654C31.3679 21.1889 31.1127 21.0948 30.8505 21.1029C30.5882 21.111 30.3394 21.2207 30.1565 21.4089L27.7386 23.8954C27.1566 23.7843 25.9866 23.4195 24.7822 22.2182C23.5777 21.0128 23.213 19.8397 23.1049 19.2617L25.5895 16.8428C25.7778 16.6601 25.8877 16.4112 25.8958 16.1489C25.9039 15.8866 25.8096 15.6314 25.6329 15.4374L21.8995 11.3311C21.7227 11.1365 21.477 11.0184 21.2146 11.002C20.9521 10.9856 20.6936 11.0721 20.494 11.2432L18.3014 13.1236C18.1267 13.2989 18.0224 13.5322 18.0084 13.7793C17.9932 14.0319 17.7042 20.0155 22.344 24.6573C26.3917 28.704 31.462 29 32.8584 29C33.0625 29 33.1878 28.9939 33.2211 28.9919C33.4682 28.9781 33.7014 28.8734 33.8758 28.6979L35.7552 26.5043C35.927 26.3053 36.0142 26.047 35.9981 25.7846C35.9821 25.5222 35.8641 25.2765 35.6693 25.0998Z" fill="#333333"/>
</svg>
