<svg width="200" height="50" viewBox="0 0 200 50" fill="none" xmlns="http://www.w3.org/2000/svg">
<rect width="200" height="50" rx="25" fill="#25D366"/>
<path d="M53.0693 30H51.0186V20.0469H53.0693V30ZM56.665 22.6035L56.7266 23.458C57.2552 22.7972 57.9639 22.4668 58.8525 22.4668C59.6364 22.4668 60.2197 22.6969 60.6025 23.1572C60.9854 23.6175 61.1813 24.3057 61.1904 25.2217V30H59.2148V25.2695C59.2148 24.8503 59.1237 24.5472 58.9414 24.3604C58.7591 24.1689 58.4561 24.0732 58.0322 24.0732C57.4762 24.0732 57.0592 24.3102 56.7812 24.7842V30H54.8057V22.6035H56.665ZM64.7793 30H62.7969V22.6035H64.7793V30ZM62.6807 20.6895C62.6807 20.3932 62.7786 20.1494 62.9746 19.958C63.1751 19.7666 63.4463 19.6709 63.7881 19.6709C64.1253 19.6709 64.3942 19.7666 64.5947 19.958C64.7952 20.1494 64.8955 20.3932 64.8955 20.6895C64.8955 20.9902 64.793 21.2363 64.5879 21.4277C64.3874 21.6191 64.1208 21.7148 63.7881 21.7148C63.4554 21.7148 63.1865 21.6191 62.9814 21.4277C62.7809 21.2363 62.6807 20.9902 62.6807 20.6895ZM69.4893 28.5439C69.8538 28.5439 70.1501 28.4437 70.3779 28.2432C70.6058 28.0426 70.7243 27.776 70.7334 27.4434H72.5859C72.5814 27.9447 72.4447 28.4049 72.1758 28.8242C71.9069 29.2389 71.5378 29.5625 71.0684 29.7949C70.6035 30.0228 70.0885 30.1367 69.5234 30.1367C68.4661 30.1367 67.6322 29.8018 67.0215 29.1318C66.4108 28.4574 66.1055 27.5277 66.1055 26.3428V26.2129C66.1055 25.0736 66.4085 24.1644 67.0146 23.4854C67.6208 22.8063 68.4525 22.4668 69.5098 22.4668C70.4349 22.4668 71.1755 22.7311 71.7314 23.2598C72.292 23.7839 72.5768 24.4834 72.5859 25.3584H70.7334C70.7243 24.9756 70.6058 24.6657 70.3779 24.4287C70.1501 24.1872 69.8493 24.0664 69.4756 24.0664C69.0153 24.0664 68.6667 24.235 68.4297 24.5723C68.1973 24.9049 68.0811 25.4473 68.0811 26.1992V26.4043C68.0811 27.1654 68.1973 27.7122 68.4297 28.0449C68.6621 28.3776 69.0153 28.5439 69.4893 28.5439ZM75.7988 30H73.8164V22.6035H75.7988V30ZM73.7002 20.6895C73.7002 20.3932 73.7982 20.1494 73.9941 19.958C74.1947 19.7666 74.4658 19.6709 74.8076 19.6709C75.1449 19.6709 75.4137 19.7666 75.6143 19.958C75.8148 20.1494 75.915 20.3932 75.915 20.6895C75.915 20.9902 75.8125 21.2363 75.6074 21.4277C75.4069 21.6191 75.1403 21.7148 74.8076 21.7148C74.4749 21.7148 74.2061 21.6191 74.001 21.4277C73.8005 21.2363 73.7002 20.9902 73.7002 20.6895ZM81.7188 30C81.6276 29.8223 81.5615 29.6012 81.5205 29.3369C81.042 29.8701 80.4199 30.1367 79.6543 30.1367C78.9297 30.1367 78.3281 29.9271 77.8496 29.5078C77.3757 29.0885 77.1387 28.5599 77.1387 27.9219C77.1387 27.138 77.4281 26.5365 78.0068 26.1172C78.5902 25.6979 79.431 25.486 80.5293 25.4814H81.4385V25.0576C81.4385 24.7158 81.3496 24.4424 81.1719 24.2373C80.9987 24.0322 80.723 23.9297 80.3447 23.9297C80.012 23.9297 79.75 24.0094 79.5586 24.1689C79.3717 24.3285 79.2783 24.5472 79.2783 24.8252H77.3027C77.3027 24.3968 77.4349 24.0003 77.6992 23.6357C77.9635 23.2712 78.3372 22.9863 78.8203 22.7812C79.3034 22.5716 79.8457 22.4668 80.4473 22.4668C81.3587 22.4668 82.0811 22.6969 82.6143 23.1572C83.152 23.613 83.4209 24.2555 83.4209 25.085V28.291C83.4255 28.9928 83.5234 29.5238 83.7148 29.8838V30H81.7188ZM80.085 28.626C80.3766 28.626 80.6455 28.5622 80.8916 28.4346C81.1377 28.3024 81.32 28.127 81.4385 27.9082V26.6367H80.7002C79.7113 26.6367 79.1849 26.9785 79.1211 27.6621L79.1143 27.7783C79.1143 28.0244 79.2008 28.2272 79.374 28.3867C79.5472 28.5462 79.7842 28.626 80.085 28.626ZM89.0947 24.4561C88.8258 24.4196 88.5889 24.4014 88.3838 24.4014C87.6364 24.4014 87.1465 24.6543 86.9141 25.1602V30H84.9385V22.6035H86.8047L86.8594 23.4854C87.2559 22.8063 87.805 22.4668 88.5068 22.4668C88.7256 22.4668 88.9307 22.4964 89.1221 22.5557L89.0947 24.4561ZM97.9678 29.248C97.4801 29.8405 96.8057 30.1367 95.9443 30.1367C95.1514 30.1367 94.5452 29.9089 94.126 29.4531C93.7113 28.9974 93.4993 28.3298 93.4902 27.4502V22.6035H95.4658V27.3818C95.4658 28.152 95.8167 28.5371 96.5186 28.5371C97.1885 28.5371 97.6488 28.3047 97.8994 27.8398V22.6035H99.8818V30H98.0225L97.9678 29.248ZM103.225 22.6035L103.286 23.4307C103.81 22.7881 104.519 22.4668 105.412 22.4668C106.365 22.4668 107.019 22.8428 107.374 23.5947C107.894 22.8428 108.634 22.4668 109.596 22.4668C110.398 22.4668 110.995 22.7015 111.387 23.1709C111.779 23.6357 111.975 24.3376 111.975 25.2764V30H109.992V25.2832C109.992 24.8639 109.91 24.5586 109.746 24.3672C109.582 24.1712 109.293 24.0732 108.878 24.0732C108.285 24.0732 107.875 24.3558 107.647 24.9209L107.654 30H105.679V25.29C105.679 24.8617 105.594 24.5518 105.426 24.3604C105.257 24.1689 104.97 24.0732 104.564 24.0732C104.004 24.0732 103.598 24.3057 103.348 24.7705V30H101.372V22.6035H103.225ZM117.785 30C117.694 29.8223 117.628 29.6012 117.587 29.3369C117.108 29.8701 116.486 30.1367 115.721 30.1367C114.996 30.1367 114.395 29.9271 113.916 29.5078C113.442 29.0885 113.205 28.5599 113.205 27.9219C113.205 27.138 113.494 26.5365 114.073 26.1172C114.657 25.6979 115.497 25.486 116.596 25.4814H117.505V25.0576C117.505 24.7158 117.416 24.4424 117.238 24.2373C117.065 24.0322 116.789 23.9297 116.411 23.9297C116.078 23.9297 115.816 24.0094 115.625 24.1689C115.438 24.3285 115.345 24.5472 115.345 24.8252H113.369C113.369 24.3968 113.501 24.0003 113.766 23.6357C114.03 23.2712 114.404 22.9863 114.887 22.7812C115.37 22.5716 115.912 22.4668 116.514 22.4668C117.425 22.4668 118.147 22.6969 118.681 23.1572C119.218 23.613 119.487 24.2555 119.487 25.085V28.291C119.492 28.9928 119.59 29.5238 119.781 29.8838V30H117.785ZM116.151 28.626C116.443 28.626 116.712 28.5622 116.958 28.4346C117.204 28.3024 117.386 28.127 117.505 27.9082V26.6367H116.767C115.778 26.6367 115.251 26.9785 115.188 27.6621L115.181 27.7783C115.181 28.0244 115.267 28.2272 115.44 28.3867C115.614 28.5462 115.851 28.626 116.151 28.626ZM127.567 28.5439C127.932 28.5439 128.228 28.4437 128.456 28.2432C128.684 28.0426 128.802 27.776 128.812 27.4434H130.664C130.66 27.9447 130.523 28.4049 130.254 28.8242C129.985 29.2389 129.616 29.5625 129.146 29.7949C128.682 30.0228 128.167 30.1367 127.602 30.1367C126.544 30.1367 125.71 29.8018 125.1 29.1318C124.489 28.4574 124.184 27.5277 124.184 26.3428V26.2129C124.184 25.0736 124.487 24.1644 125.093 23.4854C125.699 22.8063 126.531 22.4668 127.588 22.4668C128.513 22.4668 129.254 22.7311 129.81 23.2598C130.37 23.7839 130.655 24.4834 130.664 25.3584H128.812C128.802 24.9756 128.684 24.6657 128.456 24.4287C128.228 24.1872 127.927 24.0664 127.554 24.0664C127.093 24.0664 126.745 24.235 126.508 24.5723C126.275 24.9049 126.159 25.4473 126.159 26.1992V26.4043C126.159 27.1654 126.275 27.7122 126.508 28.0449C126.74 28.3776 127.093 28.5439 127.567 28.5439ZM131.484 26.2334C131.484 25.4997 131.626 24.8457 131.908 24.2715C132.191 23.6973 132.596 23.2529 133.125 22.9385C133.658 22.624 134.276 22.4668 134.978 22.4668C135.976 22.4668 136.789 22.7721 137.418 23.3828C138.051 23.9935 138.405 24.8229 138.478 25.8711L138.491 26.377C138.491 27.5117 138.174 28.4232 137.541 29.1113C136.908 29.7949 136.058 30.1367 134.991 30.1367C133.925 30.1367 133.073 29.7949 132.435 29.1113C131.801 28.4277 131.484 27.498 131.484 26.3223V26.2334ZM133.46 26.377C133.46 27.0788 133.592 27.6165 133.856 27.9902C134.121 28.3594 134.499 28.5439 134.991 28.5439C135.47 28.5439 135.843 28.3617 136.112 27.9971C136.381 27.6279 136.516 27.04 136.516 26.2334C136.516 25.5452 136.381 25.012 136.112 24.6338C135.843 24.2555 135.465 24.0664 134.978 24.0664C134.494 24.0664 134.121 24.2555 133.856 24.6338C133.592 25.0075 133.46 25.5885 133.46 26.377ZM141.526 22.6035L141.588 23.458C142.117 22.7972 142.825 22.4668 143.714 22.4668C144.498 22.4668 145.081 22.6969 145.464 23.1572C145.847 23.6175 146.043 24.3057 146.052 25.2217V30H144.076V25.2695C144.076 24.8503 143.985 24.5472 143.803 24.3604C143.62 24.1689 143.317 24.0732 142.894 24.0732C142.338 24.0732 141.921 24.3102 141.643 24.7842V30H139.667V22.6035H141.526ZM150.324 27.5869L151.698 22.6035H153.763L151.268 30H149.381L146.886 22.6035H148.95L150.324 27.5869ZM157.946 30.1367C156.862 30.1367 155.978 29.804 155.294 29.1387C154.615 28.4733 154.275 27.5869 154.275 26.4795V26.2881C154.275 25.5452 154.419 24.8822 154.706 24.2988C154.993 23.7109 155.399 23.2598 155.923 22.9453C156.451 22.6263 157.053 22.4668 157.728 22.4668C158.739 22.4668 159.535 22.7858 160.113 23.4238C160.697 24.0618 160.988 24.9665 160.988 26.1377V26.9443H156.278C156.342 27.4274 156.534 27.8148 156.853 28.1064C157.176 28.3981 157.584 28.5439 158.076 28.5439C158.837 28.5439 159.432 28.2682 159.86 27.7168L160.831 28.8037C160.535 29.223 160.134 29.5511 159.628 29.7881C159.122 30.0205 158.562 30.1367 157.946 30.1367ZM157.721 24.0664C157.329 24.0664 157.01 24.1986 156.764 24.4629C156.522 24.7272 156.367 25.1055 156.299 25.5977H159.047V25.4404C159.038 25.0029 158.919 24.6657 158.691 24.4287C158.464 24.1872 158.14 24.0664 157.721 24.0664ZM166.272 24.4561C166.004 24.4196 165.767 24.4014 165.562 24.4014C164.814 24.4014 164.324 24.6543 164.092 25.1602V30H162.116V22.6035H163.982L164.037 23.4854C164.434 22.8063 164.983 22.4668 165.685 22.4668C165.903 22.4668 166.108 22.4964 166.3 22.5557L166.272 24.4561ZM171.235 27.9561C171.235 27.7145 171.115 27.5254 170.873 27.3887C170.636 27.2474 170.253 27.1221 169.725 27.0127C167.965 26.6436 167.086 25.8962 167.086 24.7705C167.086 24.1143 167.357 23.5674 167.899 23.1299C168.446 22.6878 169.16 22.4668 170.039 22.4668C170.978 22.4668 171.728 22.6878 172.288 23.1299C172.853 23.5719 173.136 24.1462 173.136 24.8525H171.16C171.16 24.57 171.069 24.3376 170.887 24.1553C170.704 23.9684 170.42 23.875 170.032 23.875C169.7 23.875 169.442 23.9502 169.26 24.1006C169.077 24.251 168.986 24.4424 168.986 24.6748C168.986 24.8936 169.089 25.0713 169.294 25.208C169.504 25.3402 169.854 25.4564 170.347 25.5566C170.839 25.6523 171.254 25.7617 171.591 25.8848C172.634 26.2676 173.156 26.9307 173.156 27.874C173.156 28.5485 172.867 29.0954 172.288 29.5146C171.709 29.9294 170.962 30.1367 170.046 30.1367C169.426 30.1367 168.875 30.0273 168.392 29.8086C167.913 29.5853 167.537 29.2822 167.264 28.8994C166.99 28.512 166.854 28.0951 166.854 27.6484H168.727C168.745 27.9993 168.875 28.2682 169.116 28.4551C169.358 28.6419 169.681 28.7354 170.087 28.7354C170.465 28.7354 170.75 28.6647 170.941 28.5234C171.137 28.3776 171.235 28.1885 171.235 27.9561ZM178.721 30C178.63 29.8223 178.563 29.6012 178.522 29.3369C178.044 29.8701 177.422 30.1367 176.656 30.1367C175.932 30.1367 175.33 29.9271 174.852 29.5078C174.378 29.0885 174.141 28.5599 174.141 27.9219C174.141 27.138 174.43 26.5365 175.009 26.1172C175.592 25.6979 176.433 25.486 177.531 25.4814H178.44V25.0576C178.44 24.7158 178.352 24.4424 178.174 24.2373C178.001 24.0322 177.725 23.9297 177.347 23.9297C177.014 23.9297 176.752 24.0094 176.561 24.1689C176.374 24.3285 176.28 24.5472 176.28 24.8252H174.305C174.305 24.3968 174.437 24.0003 174.701 23.6357C174.965 23.2712 175.339 22.9863 175.822 22.7812C176.305 22.5716 176.848 22.4668 177.449 22.4668C178.361 22.4668 179.083 22.6969 179.616 23.1572C180.154 23.613 180.423 24.2555 180.423 25.085V28.291C180.427 28.9928 180.525 29.5238 180.717 29.8838V30H178.721ZM177.087 28.626C177.379 28.626 177.647 28.5622 177.894 28.4346C178.14 28.3024 178.322 28.127 178.44 27.9082V26.6367H177.702C176.713 26.6367 176.187 26.9785 176.123 27.6621L176.116 27.7783C176.116 28.0244 176.203 28.2272 176.376 28.3867C176.549 28.5462 176.786 28.626 177.087 28.626Z" fill="#075E54"/>
<path fill-rule="evenodd" clip-rule="evenodd" d="M41.0661 14.9238C38.528 12.3948 35.1525 11.0015 31.5565 11C24.1464 11 18.1157 17.0017 18.1128 24.3782C18.1118 26.7363 18.7307 29.0381 19.9072 31.0671L18 38L25.1267 36.1395C27.0904 37.2055 29.3012 37.7673 31.551 37.768H31.5566C38.9658 37.768 44.9972 31.7658 45 24.3889C45.0015 20.8139 43.6044 17.4525 41.0661 14.9238ZM31.5565 35.5085H31.5518C29.5469 35.5076 27.5805 34.9714 25.8647 33.9584L25.4569 33.7173L21.2278 34.8214L22.3566 30.7179L22.0908 30.2972C20.9723 28.5266 20.3816 26.4802 20.3826 24.379C20.385 18.2478 25.3976 13.2597 31.5609 13.2597C34.5455 13.2607 37.351 14.4188 39.4606 16.5208C41.5702 18.6228 42.7313 21.4167 42.7303 24.3881C42.7276 30.5198 37.7153 35.5085 31.5565 35.5085ZM37.6855 27.1799C37.3497 27.0125 35.6981 26.204 35.3901 26.0922C35.0825 25.9807 34.8583 25.9251 34.6346 26.2597C34.4105 26.5942 33.7669 27.3473 33.5708 27.5703C33.3748 27.7934 33.1791 27.8214 32.8431 27.654C32.5071 27.4867 31.4248 27.1336 30.1417 25.9947C29.1432 25.1083 28.4691 24.0135 28.273 23.679C28.0773 23.3441 28.2714 23.1807 28.4204 22.9967C28.784 22.5473 29.1482 22.0762 29.2601 21.8532C29.3722 21.6301 29.3161 21.4348 29.232 21.2675C29.1482 21.1003 28.4764 19.4548 28.1965 18.7852C27.9236 18.1336 27.6469 18.2216 27.4406 18.2114C27.2449 18.2017 27.0209 18.1997 26.7968 18.1997C26.573 18.1997 26.209 18.2833 25.901 18.6181C25.5932 18.9528 24.7255 19.7615 24.7255 21.407C24.7255 23.0524 25.9291 24.6421 26.0971 24.8652C26.265 25.0883 28.4658 28.465 31.8353 29.9129C32.6368 30.2576 33.2623 30.4631 33.7503 30.6172C34.5551 30.8716 35.2871 30.8357 35.866 30.7497C36.5115 30.6536 37.8533 29.9409 38.1334 29.1601C38.4133 28.3791 38.4133 27.7099 38.3291 27.5703C38.2454 27.4309 38.0213 27.3473 37.6855 27.1799Z" fill="white"/>
</svg>
